<svg width="25" height="24" viewBox="0 0 25 24" fill="none" xmlns="http://www.w3.org/2000/svg">
<path d="M12.4912 23.2471C11.2197 23.2471 10.0068 23.0479 8.85254 22.6494C7.69824 22.2568 6.6377 21.7031 5.6709 20.9883C4.7041 20.2793 3.86328 19.4414 3.14844 18.4746C2.43359 17.5078 1.87988 16.4473 1.4873 15.293C1.09473 14.1328 0.898438 12.9199 0.898438 11.6543C0.898438 10.3828 1.09473 9.16992 1.4873 8.01562C1.87988 6.86133 2.43359 5.80078 3.14844 4.83398C3.86328 3.86719 4.70117 3.02637 5.66211 2.31152C6.62891 1.59668 7.68945 1.04297 8.84375 0.650391C9.99805 0.251953 11.2109 0.0527344 12.4824 0.0527344C13.7539 0.0527344 14.9668 0.251953 16.1211 0.650391C17.2812 1.04297 18.3447 1.59668 19.3115 2.31152C20.2783 3.02637 21.1191 3.86719 21.834 4.83398C22.5488 5.80078 23.1025 6.86133 23.4951 8.01562C23.8936 9.16992 24.0928 10.3828 24.0928 11.6543C24.0928 12.9199 23.8936 14.1328 23.4951 15.293C23.1025 16.4473 22.5488 17.5078 21.834 18.4746C21.1191 19.4414 20.2783 20.2793 19.3115 20.9883C18.3447 21.7031 17.2842 22.2568 16.1299 22.6494C14.9756 23.0479 13.7627 23.2471 12.4912 23.2471ZM12.4912 21.5596C13.376 21.5596 14.249 21.4395 15.1104 21.1992C15.9775 20.9648 16.7891 20.625 17.5449 20.1797C18.3066 19.7402 18.9717 19.2129 19.54 18.5977C19.1064 17.9355 18.5322 17.3701 17.8174 16.9014C17.1084 16.4326 16.2969 16.0752 15.3828 15.8291C14.4746 15.5771 13.5107 15.4512 12.4912 15.4512C11.4541 15.4512 10.4785 15.5771 9.56445 15.8291C8.65625 16.0811 7.84766 16.4414 7.13867 16.9102C6.43555 17.3789 5.86719 17.9414 5.43359 18.5977C6.00781 19.2129 6.67285 19.7402 7.42871 20.1797C8.19043 20.625 9.00195 20.9648 9.86328 21.1992C10.7305 21.4395 11.6064 21.5596 12.4912 21.5596ZM12.4912 13.5C13.2295 13.5059 13.8945 13.3184 14.4863 12.9375C15.0781 12.5508 15.5469 12.0322 15.8926 11.3818C16.2383 10.7314 16.4111 9.99902 16.4111 9.18457C16.4111 8.41699 16.2354 7.71387 15.8838 7.0752C15.5381 6.43066 15.0664 5.91797 14.4688 5.53711C13.877 5.15039 13.2178 4.95703 12.4912 4.95703C11.7588 4.95703 11.0938 5.15039 10.4961 5.53711C9.9043 5.91797 9.43262 6.43066 9.08105 7.0752C8.73535 7.71387 8.56543 8.41699 8.57129 9.18457C8.57129 9.99902 8.74414 10.7314 9.08984 11.3818C9.43555 12.0264 9.9043 12.5391 10.4961 12.9199C11.0879 13.3008 11.7529 13.4941 12.4912 13.5Z" fill="#999999"/>
</svg>
