<svg width="23" height="25" viewBox="0 0 23 25" fill="none" xmlns="http://www.w3.org/2000/svg">
<path d="M2.3418 20.1162C1.83789 20.1162 1.43652 19.9873 1.1377 19.7295C0.844727 19.4775 0.698242 19.1377 0.698242 18.71C0.698242 18.3174 0.800781 17.9424 1.00586 17.585C1.2168 17.2217 1.48047 16.8701 1.79688 16.5303C2.11914 16.1904 2.44434 15.8564 2.77246 15.5283C2.99512 15.3057 3.1709 15.0332 3.2998 14.7109C3.43457 14.3828 3.54004 14.0225 3.61621 13.6299C3.69824 13.2373 3.76562 12.8301 3.81836 12.4082C3.87109 11.9863 3.91797 11.5645 3.95898 11.1426C4.0293 9.82422 4.2168 8.64355 4.52148 7.60059C4.83203 6.55176 5.28906 5.66992 5.89258 4.95508C6.49609 4.23438 7.28125 3.70703 8.24805 3.37305C8.45898 2.62305 8.84863 1.99902 9.41699 1.50098C9.99121 0.99707 10.6855 0.745117 11.5 0.745117C12.3145 0.745117 13.0059 0.99707 13.5742 1.50098C14.1484 1.99902 14.541 2.62305 14.752 3.37305C15.7129 3.70703 16.498 4.23438 17.1074 4.95508C17.7168 5.66992 18.1738 6.55176 18.4785 7.60059C18.7891 8.64355 18.9766 9.82422 19.041 11.1426C19.0879 11.5645 19.1348 11.9863 19.1816 12.4082C19.2285 12.8301 19.293 13.2373 19.375 13.6299C19.457 14.0225 19.5654 14.3828 19.7002 14.7109C19.835 15.0332 20.0107 15.3057 20.2275 15.5283C20.5615 15.8564 20.8867 16.1904 21.2031 16.5303C21.5254 16.8701 21.7891 17.2217 21.9941 17.585C22.2051 17.9424 22.3105 18.3174 22.3105 18.71C22.3105 19.1377 22.1611 19.4775 21.8623 19.7295C21.5693 19.9873 21.165 20.1162 20.6494 20.1162H2.3418ZM11.5 24.5723C10.8555 24.5723 10.2783 24.4346 9.76855 24.1592C9.25879 23.8838 8.8457 23.5176 8.5293 23.0605C8.21875 22.6094 8.03711 22.1172 7.98438 21.584H15.0244C14.9658 22.1172 14.7783 22.6094 14.4619 23.0605C14.1514 23.5176 13.7412 23.8838 13.2314 24.1592C12.7275 24.4346 12.1504 24.5723 11.5 24.5723Z" fill="#999999"/>
</svg>
