<svg width="29" height="25" viewBox="0 0 29 25" fill="none" xmlns="http://www.w3.org/2000/svg">
<path d="M17.4355 22.8037V15.3418C17.4355 15.0898 17.3594 14.8877 17.207 14.7354C17.0547 14.583 16.8525 14.5068 16.6006 14.5068H12.3906C12.1387 14.5068 11.9336 14.583 11.7754 14.7354C11.623 14.8877 11.5469 15.0898 11.5469 15.3418V22.8037H17.4355ZM4.44531 22.2588V13.1797L13.7969 5.33984C14.0195 5.15234 14.2539 5.05859 14.5 5.05859C14.7461 5.05273 14.9834 5.14648 15.2119 5.33984L24.5723 13.1885V22.2588C24.5723 23.0381 24.3438 23.6475 23.8867 24.0869C23.4297 24.5264 22.8027 24.7461 22.0059 24.7461H7.00293C6.20605 24.7461 5.5791 24.5264 5.12207 24.0869C4.6709 23.6475 4.44531 23.0381 4.44531 22.2588ZM0.938477 11.9932C0.938477 11.6826 1.07031 11.4189 1.33398 11.2021L13.041 1.37598C13.4922 0.989258 13.9814 0.795898 14.5088 0.795898C15.042 0.795898 15.5342 0.989258 15.9854 1.37598L27.666 11.2021C27.9238 11.4189 28.0527 11.6914 28.0527 12.0195C28.0527 12.3008 27.9561 12.5234 27.7627 12.6875C27.5752 12.8516 27.3379 12.9336 27.0508 12.9336C26.8984 12.9336 26.7549 12.8984 26.6201 12.8281C26.4854 12.7578 26.3564 12.6729 26.2334 12.5732L15.001 3.13379C14.8428 2.99316 14.6787 2.92578 14.5088 2.93164C14.3389 2.93164 14.1777 2.99902 14.0254 3.13379L2.7666 12.5732C2.64355 12.6729 2.51465 12.7578 2.37988 12.8281C2.25098 12.8984 2.11035 12.9336 1.95801 12.9336C1.6416 12.9336 1.39258 12.8428 1.21094 12.6611C1.0293 12.4736 0.938477 12.251 0.938477 11.9932ZM21.6631 6.86035V3.91602C21.6631 3.68164 21.7363 3.49707 21.8828 3.3623C22.0293 3.22754 22.2168 3.16016 22.4453 3.16016H23.834C24.0625 3.16016 24.2471 3.22754 24.3877 3.3623C24.5283 3.49707 24.5986 3.68164 24.5986 3.91602V9.33887L21.6631 6.86035Z" fill="white"/>
</svg>
