<svg width="27" height="22" viewBox="0 0 27 22" fill="none" xmlns="http://www.w3.org/2000/svg">
<path d="M2.06055 16.4111V6.3916C2.06055 6.06934 2.15723 5.81152 2.35059 5.61816C2.5498 5.4248 2.81641 5.32812 3.15039 5.32812H5.7959C6.12988 5.32812 6.39648 5.4248 6.5957 5.61816C6.79492 5.81152 6.89453 6.06934 6.89453 6.3916V16.4111C6.89453 16.7393 6.79492 16.9971 6.5957 17.1846C6.39648 17.3779 6.12988 17.4746 5.7959 17.4746H3.15039C2.81641 17.4746 2.5498 17.3779 2.35059 17.1846C2.15723 16.9971 2.06055 16.7393 2.06055 16.4111ZM8.23047 16.4111V1.19727C8.23047 0.875 8.33008 0.617188 8.5293 0.423828C8.73438 0.230469 9.00098 0.133789 9.3291 0.133789H11.9658C12.3057 0.133789 12.5752 0.230469 12.7744 0.423828C12.9736 0.617188 13.0732 0.875 13.0732 1.19727V16.4111C13.0732 16.7393 12.9736 16.9971 12.7744 17.1846C12.5752 17.3779 12.3057 17.4746 11.9658 17.4746H9.3291C9.00098 17.4746 8.73438 17.3779 8.5293 17.1846C8.33008 16.9971 8.23047 16.7393 8.23047 16.4111ZM14.418 16.4111V3.86914C14.418 3.53516 14.5176 3.27441 14.7168 3.08691C14.916 2.89355 15.1826 2.79688 15.5166 2.79688H18.1533C18.4873 2.79688 18.7539 2.89355 18.9531 3.08691C19.1582 3.27441 19.2607 3.53516 19.2607 3.86914V16.4111C19.2607 16.7393 19.1582 16.9971 18.9531 17.1846C18.7539 17.3779 18.4873 17.4746 18.1533 17.4746H15.5166C15.1826 17.4746 14.916 17.3779 14.7168 17.1846C14.5176 16.9971 14.418 16.7393 14.418 16.4111ZM20.6055 16.4111V8.85254C20.6055 8.52441 20.7021 8.2666 20.8955 8.0791C21.0947 7.88574 21.3643 7.78906 21.7041 7.78906H24.3496C24.6777 7.78906 24.9414 7.88574 25.1406 8.0791C25.3398 8.2666 25.4395 8.52441 25.4395 8.85254V16.4111C25.4395 16.7393 25.3398 16.9971 25.1406 17.1846C24.9414 17.3779 24.6777 17.4746 24.3496 17.4746H21.7041C21.3643 17.4746 21.0947 17.3779 20.8955 17.1846C20.7021 16.9971 20.6055 16.7393 20.6055 16.4111ZM0.935547 20.2256C0.935547 19.9561 1.0293 19.7305 1.2168 19.5488C1.41016 19.3672 1.63867 19.2764 1.90234 19.2764H25.5889C25.8584 19.2764 26.0869 19.3672 26.2744 19.5488C26.4678 19.7305 26.5645 19.9561 26.5645 20.2256C26.5645 20.501 26.4678 20.7295 26.2744 20.9111C26.0869 21.0928 25.8584 21.1836 25.5889 21.1836H1.90234C1.63867 21.1836 1.41016 21.0928 1.2168 20.9111C1.0293 20.7295 0.935547 20.501 0.935547 20.2256Z" fill="#999999"/>
</svg>
