<svg width="24" height="22" viewBox="0 0 24 22" fill="none" xmlns="http://www.w3.org/2000/svg">
<path d="M3.89258 21.1396C2.71484 21.1396 1.82129 20.8408 1.21191 20.2432C0.608398 19.6455 0.306641 18.7607 0.306641 17.5889V3.74609C0.306641 2.58008 0.608398 1.69824 1.21191 1.10059C1.82129 0.50293 2.71484 0.204102 3.89258 0.204102H19.6074C20.7852 0.204102 21.6758 0.505859 22.2793 1.10938C22.8887 1.70703 23.1934 2.58594 23.1934 3.74609V17.5889C23.1934 18.7549 22.8887 19.6367 22.2793 20.2344C21.6758 20.8379 20.7852 21.1396 19.6074 21.1396H3.89258ZM3.86621 19.2061H19.6162C20.1377 19.2061 20.5391 19.0684 20.8203 18.793C21.1074 18.5234 21.251 18.1133 21.251 17.5625V7.20898C21.251 6.66406 21.1074 6.25684 20.8203 5.9873C20.5391 5.71191 20.1377 5.57422 19.6162 5.57422H3.86621C3.33887 5.57422 2.9375 5.71191 2.66211 5.9873C2.38672 6.25684 2.24902 6.66406 2.24902 7.20898V17.5625C2.24902 18.1133 2.38672 18.5234 2.66211 18.793C2.9375 19.0684 3.33887 19.2061 3.86621 19.2061ZM9.54395 9.51172C9.35059 9.51172 9.21582 9.47656 9.13965 9.40625C9.06934 9.33594 9.03418 9.20703 9.03418 9.01953V8.35156C9.03418 8.16406 9.06934 8.03809 9.13965 7.97363C9.21582 7.90332 9.35059 7.86816 9.54395 7.86816H10.2119C10.4053 7.86816 10.5371 7.90332 10.6074 7.97363C10.6777 8.03809 10.7129 8.16406 10.7129 8.35156V9.01953C10.7129 9.20703 10.6777 9.33594 10.6074 9.40625C10.5371 9.47656 10.4053 9.51172 10.2119 9.51172H9.54395ZM13.2969 9.51172C13.1094 9.51172 12.9775 9.47656 12.9014 9.40625C12.8311 9.33594 12.7959 9.20703 12.7959 9.01953V8.35156C12.7959 8.16406 12.8311 8.03809 12.9014 7.97363C12.9775 7.90332 13.1094 7.86816 13.2969 7.86816H13.9648C14.1582 7.86816 14.29 7.90332 14.3604 7.97363C14.4307 8.03809 14.4658 8.16406 14.4658 8.35156V9.01953C14.4658 9.20703 14.4307 9.33594 14.3604 9.40625C14.29 9.47656 14.1582 9.51172 13.9648 9.51172H13.2969ZM17.0586 9.51172C16.8652 9.51172 16.7334 9.47656 16.6631 9.40625C16.5928 9.33594 16.5576 9.20703 16.5576 9.01953V8.35156C16.5576 8.16406 16.5928 8.03809 16.6631 7.97363C16.7334 7.90332 16.8652 7.86816 17.0586 7.86816H17.7266C17.9141 7.86816 18.043 7.90332 18.1133 7.97363C18.1895 8.03809 18.2275 8.16406 18.2275 8.35156V9.01953C18.2275 9.20703 18.1895 9.33594 18.1133 9.40625C18.043 9.47656 17.9141 9.51172 17.7266 9.51172H17.0586ZM5.78223 13.2119C5.58887 13.2119 5.45703 13.1768 5.38672 13.1064C5.31641 13.0361 5.28125 12.9072 5.28125 12.7197V12.0518C5.28125 11.8584 5.31641 11.7295 5.38672 11.665C5.45703 11.6006 5.58887 11.5684 5.78223 11.5684H6.4502C6.6377 11.5684 6.7666 11.6006 6.83691 11.665C6.91309 11.7295 6.95117 11.8584 6.95117 12.0518V12.7197C6.95117 12.9072 6.91309 13.0361 6.83691 13.1064C6.7666 13.1768 6.6377 13.2119 6.4502 13.2119H5.78223ZM9.54395 13.2119C9.35059 13.2119 9.21582 13.1768 9.13965 13.1064C9.06934 13.0361 9.03418 12.9072 9.03418 12.7197V12.0518C9.03418 11.8584 9.06934 11.7295 9.13965 11.665C9.21582 11.6006 9.35059 11.5684 9.54395 11.5684H10.2119C10.4053 11.5684 10.5371 11.6006 10.6074 11.665C10.6777 11.7295 10.7129 11.8584 10.7129 12.0518V12.7197C10.7129 12.9072 10.6777 13.0361 10.6074 13.1064C10.5371 13.1768 10.4053 13.2119 10.2119 13.2119H9.54395ZM13.2969 13.2119C13.1094 13.2119 12.9775 13.1768 12.9014 13.1064C12.8311 13.0361 12.7959 12.9072 12.7959 12.7197V12.0518C12.7959 11.8584 12.8311 11.7295 12.9014 11.665C12.9775 11.6006 13.1094 11.5684 13.2969 11.5684H13.9648C14.1582 11.5684 14.29 11.6006 14.3604 11.665C14.4307 11.7295 14.4658 11.8584 14.4658 12.0518V12.7197C14.4658 12.9072 14.4307 13.0361 14.3604 13.1064C14.29 13.1768 14.1582 13.2119 13.9648 13.2119H13.2969ZM17.0586 13.2119C16.8652 13.2119 16.7334 13.1768 16.6631 13.1064C16.5928 13.0361 16.5576 12.9072 16.5576 12.7197V12.0518C16.5576 11.8584 16.5928 11.7295 16.6631 11.665C16.7334 11.6006 16.8652 11.5684 17.0586 11.5684H17.7266C17.9141 11.5684 18.043 11.6006 18.1133 11.665C18.1895 11.7295 18.2275 11.8584 18.2275 12.0518V12.7197C18.2275 12.9072 18.1895 13.0361 18.1133 13.1064C18.043 13.1768 17.9141 13.2119 17.7266 13.2119H17.0586ZM5.78223 16.9033C5.58887 16.9033 5.45703 16.8711 5.38672 16.8066C5.31641 16.7422 5.28125 16.6133 5.28125 16.4199V15.7607C5.28125 15.5674 5.31641 15.4385 5.38672 15.374C5.45703 15.3037 5.58887 15.2686 5.78223 15.2686H6.4502C6.6377 15.2686 6.7666 15.3037 6.83691 15.374C6.91309 15.4385 6.95117 15.5674 6.95117 15.7607V16.4199C6.95117 16.6133 6.91309 16.7422 6.83691 16.8066C6.7666 16.8711 6.6377 16.9033 6.4502 16.9033H5.78223ZM9.54395 16.9033C9.35059 16.9033 9.21582 16.8711 9.13965 16.8066C9.06934 16.7422 9.03418 16.6133 9.03418 16.4199V15.7607C9.03418 15.5674 9.06934 15.4385 9.13965 15.374C9.21582 15.3037 9.35059 15.2686 9.54395 15.2686H10.2119C10.4053 15.2686 10.5371 15.3037 10.6074 15.374C10.6777 15.4385 10.7129 15.5674 10.7129 15.7607V16.4199C10.7129 16.6133 10.6777 16.7422 10.6074 16.8066C10.5371 16.8711 10.4053 16.9033 10.2119 16.9033H9.54395ZM13.2969 16.9033C13.1094 16.9033 12.9775 16.8711 12.9014 16.8066C12.8311 16.7422 12.7959 16.6133 12.7959 16.4199V15.7607C12.7959 15.5674 12.8311 15.4385 12.9014 15.374C12.9775 15.3037 13.1094 15.2686 13.2969 15.2686H13.9648C14.1582 15.2686 14.29 15.3037 14.3604 15.374C14.4307 15.4385 14.4658 15.5674 14.4658 15.7607V16.4199C14.4658 16.6133 14.4307 16.7422 14.3604 16.8066C14.29 16.8711 14.1582 16.9033 13.9648 16.9033H13.2969Z" fill="white"/>
</svg>
