<svg width="24" height="44" viewBox="0 0 24 44" fill="none" xmlns="http://www.w3.org/2000/svg">
<circle cx="12" cy="22" r="11" fill="#D0BCFF"/>
<path d="M10.8955 26.9363C10.5651 26.9363 10.2866 26.797 10.0601 26.5186L7.17847 22.929C7.08879 22.8204 7.02507 22.7166 6.9873 22.6174C6.94954 22.5136 6.93066 22.4074 6.93066 22.2988C6.93066 22.0581 7.0109 21.8599 7.17139 21.7041C7.33187 21.5436 7.53719 21.4634 7.78735 21.4634C8.06584 21.4634 8.29948 21.5837 8.48828 21.8245L10.8672 24.8831L15.4692 17.5623C15.5778 17.4018 15.6887 17.2885 15.802 17.2224C15.9153 17.1516 16.0569 17.1162 16.2268 17.1162C16.4722 17.1162 16.6729 17.1941 16.8286 17.3499C16.9891 17.5009 17.0693 17.6968 17.0693 17.9375C17.0693 18.0319 17.0528 18.1287 17.0198 18.2278C16.9915 18.3269 16.9419 18.4307 16.8711 18.5393L11.731 26.4973C11.5327 26.79 11.2542 26.9363 10.8955 26.9363Z" fill="white"/>
</svg>
