<svg width="13" height="13" viewBox="0 0 13 13" fill="none" xmlns="http://www.w3.org/2000/svg">
<path d="M6.5 12.7473C5.6748 12.7473 4.89844 12.5911 4.1709 12.2786C3.44336 11.9661 2.80127 11.5315 2.24463 10.9749C1.68799 10.4133 1.25098 9.7688 0.933594 9.04126C0.621094 8.31372 0.464844 7.53735 0.464844 6.71216C0.464844 5.88696 0.621094 5.1106 0.933594 4.38306C1.25098 3.65552 1.68555 3.01343 2.2373 2.45679C2.79395 1.90015 3.43604 1.46558 4.16357 1.15308C4.89111 0.840576 5.66748 0.684326 6.49268 0.684326C7.32275 0.684326 8.10156 0.840576 8.8291 1.15308C9.55664 1.46558 10.1987 1.90015 10.7554 2.45679C11.312 3.01343 11.7466 3.65552 12.0591 4.38306C12.3765 5.1106 12.5352 5.88696 12.5352 6.71216C12.5352 7.53735 12.3765 8.31372 12.0591 9.04126C11.7466 9.7688 11.312 10.4133 10.7554 10.9749C10.2036 11.5315 9.56396 11.9661 8.83643 12.2786C8.10889 12.5911 7.33008 12.7473 6.5 12.7473ZM6.35352 7.88403C6.54395 7.88403 6.7002 7.83765 6.82227 7.74487C6.94434 7.6521 7.0127 7.53735 7.02734 7.40063C7.02734 7.39087 7.02734 7.3811 7.02734 7.37134C7.02734 7.36157 7.02979 7.35425 7.03467 7.34937C7.04932 7.20776 7.11035 7.08325 7.21777 6.97583C7.33008 6.86353 7.47656 6.74878 7.65723 6.63159C7.95508 6.44604 8.19189 6.25073 8.36768 6.04565C8.54834 5.84058 8.63867 5.55981 8.63867 5.20337C8.63867 4.85669 8.54346 4.56128 8.35303 4.31714C8.1626 4.06812 7.90869 3.88013 7.59131 3.75317C7.27881 3.62134 6.93457 3.55542 6.55859 3.55542C6.03613 3.55542 5.59912 3.65308 5.24756 3.84839C4.896 4.0437 4.6665 4.28296 4.55908 4.56616C4.51025 4.69312 4.48584 4.80786 4.48584 4.9104C4.48584 5.07153 4.54199 5.20581 4.6543 5.31323C4.7666 5.41577 4.89844 5.46704 5.0498 5.46704C5.17676 5.46704 5.28418 5.44263 5.37207 5.3938C5.46484 5.34497 5.54785 5.27661 5.62109 5.18872L5.70898 5.07153C5.82129 4.92993 5.93604 4.82983 6.05322 4.77124C6.17529 4.71265 6.30713 4.68335 6.44873 4.68335C6.64893 4.68335 6.8125 4.7395 6.93945 4.85181C7.06641 4.96411 7.12988 5.10815 7.12988 5.28394C7.12988 5.45972 7.06641 5.60376 6.93945 5.71606C6.8125 5.82837 6.62939 5.96997 6.39014 6.14087C6.18506 6.28247 6.00928 6.43872 5.86279 6.60962C5.72119 6.77563 5.65039 6.99048 5.65039 7.25415C5.65039 7.25903 5.65039 7.26392 5.65039 7.2688C5.65039 7.27368 5.65039 7.27856 5.65039 7.28345C5.65039 7.68384 5.88477 7.88403 6.35352 7.88403ZM6.34619 9.8103C6.56592 9.8103 6.75391 9.74438 6.91016 9.61255C7.06641 9.47583 7.14453 9.30005 7.14453 9.08521C7.14453 8.87036 7.06641 8.69458 6.91016 8.55786C6.75879 8.42114 6.5708 8.35278 6.34619 8.35278C6.12646 8.35278 5.93848 8.42114 5.78223 8.55786C5.62598 8.69458 5.54785 8.87036 5.54785 9.08521C5.54785 9.29517 5.62598 9.46851 5.78223 9.60522C5.93848 9.74194 6.12646 9.8103 6.34619 9.8103Z" fill="#D0BCFF"/>
</svg>
