<svg width="8" height="13" viewBox="0 0 8 13" fill="none" xmlns="http://www.w3.org/2000/svg">
<path d="M7.84961 6.18872C7.84961 6.3326 7.82194 6.46541 7.7666 6.58716C7.71126 6.7089 7.62549 6.82788 7.50928 6.94409L2.53711 11.8665C2.35449 12.0491 2.13314 12.1404 1.87305 12.1404C1.60189 12.1404 1.37223 12.0491 1.18408 11.8665C0.995931 11.6783 0.901855 11.4514 0.901855 11.1858C0.901855 10.9202 1.00423 10.685 1.20898 10.4802L5.56689 6.18872L1.20898 1.89722C1.00423 1.69246 0.901855 1.45728 0.901855 1.19165C0.901855 0.926025 0.995931 0.701904 1.18408 0.519287C1.37223 0.331136 1.60189 0.237061 1.87305 0.237061C2.13314 0.237061 2.35449 0.328369 2.53711 0.510986L7.50928 5.43335C7.73617 5.64917 7.84961 5.90096 7.84961 6.18872Z" fill="#D0BCFF"/>
</svg>
