<svg width="82" height="56" viewBox="0 0 82 56" fill="none" xmlns="http://www.w3.org/2000/svg">
<path d="M8.46776 55.5317C5.84453 55.5317 3.77305 54.7791 2.25338 53.2736C0.751772 51.7861 0.000976562 49.7365 0.000976562 47.1245V37.4111C0.000976562 34.781 0.751772 32.7223 2.25338 31.2348C3.77305 29.7294 5.84453 28.9766 8.46776 28.9766H72.7556C75.3972 28.9766 77.4686 29.7294 78.9701 31.2348C80.4717 32.7223 81.2226 34.781 81.2226 37.4111V47.1245C81.2226 49.7365 80.4717 51.7861 78.9701 53.2736C77.4686 54.7791 75.3972 55.5317 72.7556 55.5317H8.46776ZM11.9685 43.6146H20.8966C21.6564 43.6146 22.2715 43.379 22.7419 42.9073C23.2304 42.4176 23.4746 41.8007 23.4746 41.057C23.4746 40.3133 23.2304 39.6967 22.7419 39.207C22.2715 38.7173 21.6564 38.4721 20.8966 38.4721H11.9685C11.2267 38.4721 10.6116 38.7173 10.1231 39.207C9.65276 39.6967 9.41757 40.3133 9.41757 41.057C9.41757 41.8007 9.65276 42.4176 10.1231 42.9073C10.6116 43.379 11.2267 43.6146 11.9685 43.6146ZM35.3063 46.2267C36.392 46.2267 37.3237 45.8366 38.1015 45.0565C38.8796 44.2767 39.2686 43.3334 39.2686 42.2272C39.2686 41.157 38.8796 40.2316 38.1015 39.4519C37.3237 38.6537 36.392 38.2545 35.3063 38.2545C34.2029 38.2545 33.262 38.6537 32.4843 39.4519C31.7062 40.2316 31.3172 41.157 31.3172 42.2272C31.3172 43.3334 31.7062 44.2767 32.4843 45.0565C33.262 45.8366 34.2029 46.2267 35.3063 46.2267ZM46.1886 46.2267C47.274 46.2267 48.2057 45.8366 48.9834 45.0565C49.7615 44.2767 50.1506 43.3334 50.1506 42.2272C50.1506 41.157 49.7615 40.2316 48.9834 39.4519C48.2057 38.6537 47.274 38.2545 46.1886 38.2545C45.0849 38.2545 44.144 38.6537 43.3662 39.4519C42.5882 40.2316 42.1991 41.157 42.1991 42.2272C42.1991 43.3334 42.5882 44.2767 43.3662 45.0565C44.144 45.8366 45.0849 46.2267 46.1886 46.2267ZM57.0705 46.2267C58.1559 46.2267 59.0876 45.8366 59.8657 45.0565C60.6615 44.2767 61.0596 43.3334 61.0596 42.2272C61.0596 41.157 60.6615 40.2316 59.8657 39.4519C59.0876 38.6537 58.1559 38.2545 57.0705 38.2545C55.9848 38.2545 55.0443 38.6537 54.2482 39.4519C53.4701 40.2316 53.0814 41.157 53.0814 42.2272C53.0814 43.3334 53.4701 44.2767 54.2482 45.0565C55.0443 45.8366 55.9848 46.2267 57.0705 46.2267ZM67.9796 46.2267C69.047 46.2267 69.9788 45.8366 70.7748 45.0565C71.5709 44.2767 71.9687 43.3334 71.9687 42.2272C71.9687 41.157 71.5709 40.2316 70.7748 39.4519C69.9788 38.6537 69.047 38.2545 67.9796 38.2545C66.8942 38.2545 65.9534 38.6537 65.1573 39.4519C64.3612 40.2316 63.9634 41.157 63.9634 42.2272C63.9634 43.3334 64.3612 44.2767 65.1573 45.0565C65.9534 45.8366 66.8942 46.2267 67.9796 46.2267ZM40.5982 0C43.6013 0 46.523 0.426262 49.3637 1.27878C52.2219 2.11316 54.8452 3.31938 57.2333 4.89747C57.8123 5.27838 58.1651 5.78627 58.2916 6.42111C58.4364 7.03782 58.3279 7.62733 57.966 8.18963C57.6224 8.75194 57.1248 9.08751 56.4736 9.19634C55.8403 9.30519 55.2162 9.16005 54.601 8.76101C52.629 7.41873 50.4399 6.40298 48.0337 5.7137C45.6455 5.00629 43.1672 4.65258 40.5982 4.65258C38.0655 4.65258 35.5959 5.00629 33.1898 5.7137C30.7836 6.42111 28.5945 7.43689 26.6226 8.76101C26.0074 9.16005 25.3833 9.30519 24.7501 9.19634C24.1169 9.08751 23.6103 8.75194 23.2304 8.18963C22.8867 7.64549 22.7872 7.06503 22.9319 6.44831C23.0766 5.81347 23.4294 5.2965 23.9902 4.89747C26.3783 3.31938 28.9925 2.11316 31.8327 1.27878C34.6734 0.426262 37.5951 0 40.5982 0ZM40.5982 8.57054C42.8415 8.57054 44.9943 8.888 47.0569 9.52284C49.1374 10.1395 51.0097 11.0374 52.6741 12.2164C53.2351 12.5974 53.5787 13.0871 53.7055 13.6857C53.85 14.2843 53.7415 14.8647 53.3799 15.427C53.018 15.9893 52.5113 16.3249 51.86 16.4337C51.2268 16.5425 50.5847 16.3974 49.9335 15.9984C47.2919 14.1664 44.1803 13.2504 40.5982 13.2504C37.0341 13.2504 33.9316 14.1664 31.29 15.9984C30.6569 16.3974 30.0147 16.5425 29.3634 16.4337C28.7121 16.3249 28.2055 15.9893 27.8437 15.427C27.5 14.8647 27.3914 14.2843 27.5181 13.6857C27.6447 13.0871 27.9794 12.5974 28.5221 12.2164C30.2227 11.0374 32.1132 10.1395 34.1938 9.52284C36.2743 8.888 38.4091 8.57054 40.5982 8.57054ZM40.5982 17.1955C43.5107 17.1955 46.0437 17.9664 48.1965 19.5082C48.7033 19.871 49.0106 20.3607 49.1191 20.9775C49.246 21.576 49.1462 22.1383 48.8206 22.6644C48.4228 23.263 47.8889 23.6167 47.2197 23.7255C46.5685 23.8162 45.9081 23.6439 45.2385 23.2085C44.0083 22.3016 42.4617 21.8481 40.5982 21.8481C38.789 21.8481 37.2511 22.3016 35.985 23.2085C35.3154 23.6257 34.6551 23.789 34.0038 23.6983C33.3526 23.6076 32.8279 23.263 32.43 22.6644C32.0861 22.1383 31.9776 21.567 32.1044 20.9503C32.2309 20.3335 32.5474 19.8528 33.0541 19.5082C34.031 18.7645 35.1798 18.1931 36.5005 17.7941C37.8393 17.395 39.2052 17.1955 40.5982 17.1955Z" fill="#B6B6B6"/>
</svg>
