<svg width="94" height="94" viewBox="0 0 94 94" fill="none" xmlns="http://www.w3.org/2000/svg">
<path d="M47 94C40.5797 94 34.5281 92.771 28.8451 90.3138C23.1928 87.8559 18.201 84.4615 13.8696 80.1307C9.53822 75.7992 6.14378 70.8071 3.68627 65.1549C1.22876 59.4719 0 53.4202 0 47C0 40.5797 1.22876 34.5435 3.68627 28.8911C6.14378 23.2082 9.52283 18.201 13.8235 13.8696C18.1549 9.53824 23.1467 6.14381 28.799 3.68627C34.482 1.22875 40.5336 0 46.9539 0C53.3741 0 59.4258 1.22875 65.1087 3.68627C70.7917 6.14381 75.7992 9.53824 80.13 13.8696C84.4615 18.201 87.8559 23.2082 90.3138 28.8911C92.771 34.5435 94 40.5797 94 47C94 53.4202 92.771 59.4719 90.3138 65.1549C87.8559 70.8071 84.4615 75.7992 80.13 80.1307C75.7992 84.4615 70.7917 87.8559 65.1087 90.3138C59.4565 92.771 53.4202 94 47 94ZM47 86.1667C52.4372 86.1667 57.5212 85.1533 62.2519 83.1258C66.9826 81.0984 71.145 78.3029 74.7394 74.7394C78.3334 71.1454 81.1289 66.9827 83.1251 62.252C85.1526 57.5212 86.1667 52.4373 86.1667 47C86.1667 41.5628 85.1526 36.4788 83.1251 31.7481C81.0976 27.0174 78.2869 22.8549 74.6929 19.2608C71.1296 15.6667 66.9673 12.8713 62.2058 10.8745C57.4751 8.84703 52.3911 7.83337 46.9539 7.83337C41.5166 7.83337 36.4327 8.84703 31.7019 10.8745C26.9712 12.8713 22.8241 15.6667 19.2608 19.2608C15.6974 22.8549 12.9019 27.0174 10.8745 31.7481C8.87778 36.4788 7.87944 41.5628 7.87944 47C7.87944 52.4373 8.87778 57.5212 10.8745 62.252C12.9019 66.9827 15.6974 71.1454 19.2608 74.7394C22.8549 78.3029 27.0173 81.0984 31.748 83.1258C36.4787 85.1533 41.5627 86.1667 47 86.1667ZM25.6196 47C25.6196 45.8327 25.9729 44.8958 26.6794 44.1893C27.4166 43.4519 28.3843 43.0833 29.5823 43.0833H43.1293V29.5363C43.1293 28.3689 43.4826 27.4167 44.1892 26.6794C44.8957 25.9421 45.8019 25.5735 46.9078 25.5735C48.0751 25.5735 49.0121 25.9421 49.7186 26.6794C50.4558 27.386 50.8244 28.3382 50.8244 29.5363V43.0833H64.4176C65.5849 43.0833 66.5219 43.4519 67.2284 44.1893C67.9656 44.8958 68.3342 45.8327 68.3342 47C68.3342 48.1059 67.9656 49.0121 67.2284 49.7186C66.5219 50.4252 65.5849 50.7784 64.4176 50.7784H50.8244V64.3716C50.8244 65.5389 50.4558 66.4912 49.7186 67.2284C49.0121 67.9349 48.0751 68.2882 46.9078 68.2882C45.8019 68.2882 44.8957 67.9349 44.1892 67.2284C43.4826 66.4912 43.1293 65.5389 43.1293 64.3716V50.7784H29.5823C28.415 50.7784 27.4627 50.4252 26.7255 49.7186C25.9882 49.0121 25.6196 48.1059 25.6196 47Z" fill="#EBEBF5" fill-opacity="0.6"/>
</svg>
