<?xml version="1.0" encoding="UTF-8"?>
<svg id="Layer_1" data-name="Layer 1" xmlns="http://www.w3.org/2000/svg" xmlns:xlink="http://www.w3.org/1999/xlink" version="1.1" viewBox="0 0 1024 1024">
  <defs>
    <style>
      .cls-1 {
        fill: url(#New_Gradient_Swatch_1);
      }

      .cls-1, .cls-2, .cls-3 {
        stroke-width: 0px;
      }

      .cls-2 {
        fill: none;
      }

      .cls-3 {
        fill: #fff;
      }
    </style>
    <linearGradient id="New_Gradient_Swatch_1" data-name="New Gradient Swatch 1" x1="214.6" y1="900.8" x2="220.7" y2="905.2" gradientTransform="translate(-6612.2 44572.2) scale(32.9 -48.9)" gradientUnits="userSpaceOnUse">
      <stop offset="0" stop-color="#2868b1"/>
      <stop offset="1" stop-color="#3fbaeb"/>
    </linearGradient>
  </defs>
  <circle class="cls-2" cx="512" cy="512" r="384"/>
  <rect class="cls-2" width="1024" height="1024"/>
  <g>
    <path class="cls-3" d="M309.5,676.6c-.3-3-1.8-5.4-4.2-7.1-2.5-1.7-5.6-2.5-9.4-2.5s-5,.4-7,1.3c-2,.8-3.5,2-4.6,3.5-1.1,1.5-1.6,3.1-1.6,5s.4,2.9,1.1,4.1c.7,1.1,1.7,2.1,2.9,2.8,1.2.8,2.5,1.4,3.9,1.9,1.4.5,2.7.9,4,1.2l6.4,1.7c2.1.5,4.3,1.2,6.5,2.1,2.2.9,4.3,2,6.1,3.5,1.9,1.4,3.4,3.2,4.6,5.3,1.2,2.1,1.8,4.7,1.8,7.6s-1,7-2.9,9.9-4.7,5.2-8.3,6.9c-3.6,1.7-8,2.5-13.2,2.5s-9.2-.8-12.8-2.3c-3.6-1.6-6.4-3.8-8.5-6.7-2-2.9-3.2-6.3-3.4-10.3h10c.2,2.4,1,4.4,2.3,5.9,1.4,1.6,3.1,2.7,5.2,3.5,2.1.8,4.5,1.1,7,1.1s5.3-.4,7.5-1.3c2.2-.9,3.9-2.1,5.2-3.7,1.3-1.6,1.9-3.5,1.9-5.6s-.6-3.5-1.7-4.8c-1.1-1.2-2.6-2.3-4.5-3.1-1.9-.8-4-1.5-6.4-2.2l-7.8-2.1c-5.3-1.4-9.5-3.6-12.5-6.3-3.1-2.8-4.6-6.5-4.6-11.1s1-7.1,3.1-9.9c2.1-2.8,4.8-5,8.4-6.6,3.5-1.6,7.5-2.4,11.9-2.4s8.4.8,11.8,2.4c3.4,1.6,6.1,3.7,8.1,6.4,2,2.7,3,5.9,3.1,9.4h-9.6Z"/>
    <path class="cls-3" d="M331,743.7c-1.4,0-2.7-.1-3.9-.3-1.2-.2-2.1-.5-2.6-.7l2.3-7.9c1.8.5,3.3.7,4.7.6,1.4,0,2.6-.6,3.7-1.5,1.1-1,2-2.5,2.8-4.7l1.2-3.3-18.1-50.1h10.3l12.5,38.4h.5l12.5-38.4h10.3l-20.4,56c-.9,2.6-2.1,4.8-3.6,6.5-1.5,1.8-3.2,3.1-5.2,4-2,.9-4.4,1.4-7,1.4Z"/>
    <path class="cls-3" d="M371.3,725.1v-49.4h9.2v8h.6c1-2.7,2.7-4.9,5.1-6.4,2.3-1.5,5.1-2.3,8.4-2.3s6.1.8,8.3,2.3c2.2,1.5,3.9,3.7,5,6.4h.5c1.2-2.6,3.1-4.7,5.6-6.3,2.6-1.6,5.6-2.4,9.2-2.4s8.1,1.4,11,4.2c2.8,2.8,4.3,7,4.3,12.7v33.1h-9.6v-32.2c0-3.3-.9-5.8-2.7-7.3-1.8-1.5-4-2.3-6.5-2.3s-5.6,1-7.3,2.9c-1.7,1.9-2.6,4.4-2.6,7.4v31.5h-9.6v-32.9c0-2.7-.8-4.8-2.5-6.5-1.7-1.6-3.8-2.4-6.5-2.4s-3.5.5-5,1.4c-1.5,1-2.8,2.3-3.7,4-.9,1.7-1.4,3.7-1.4,5.9v30.5h-9.6Z"/>
    <path class="cls-3" d="M447.3,743.7v-68h9.4v8h.8c.6-1,1.4-2.2,2.4-3.6,1.1-1.4,2.5-2.5,4.4-3.6,1.9-1,4.3-1.5,7.4-1.5s7.5,1,10.7,3c3.1,2,5.6,4.9,7.4,8.7,1.8,3.8,2.7,8.4,2.7,13.7s-.9,9.9-2.7,13.7c-1.8,3.8-4.2,6.7-7.3,8.8-3.1,2-6.7,3.1-10.6,3.1s-5.5-.5-7.4-1.5c-1.9-1-3.4-2.2-4.5-3.5-1.1-1.4-1.9-2.6-2.5-3.6h-.6v26.2h-9.6ZM456.7,700.4c0,3.5.5,6.5,1.5,9.1,1,2.6,2.5,4.7,4.4,6.1,1.9,1.5,4.2,2.2,7,2.2s5.3-.8,7.2-2.3c1.9-1.5,3.4-3.6,4.4-6.3,1-2.6,1.5-5.6,1.5-8.9s-.5-6.2-1.5-8.8c-1-2.6-2.4-4.6-4.4-6.1-1.9-1.5-4.4-2.3-7.3-2.3s-5.1.7-7.1,2.2c-1.9,1.4-3.4,3.4-4.4,6-1,2.6-1.5,5.6-1.5,9Z"/>
    <path class="cls-3" d="M508.9,695.8v29.3h-9.6v-65.9h9.5v24.5h.6c1.2-2.7,2.9-4.8,5.3-6.3,2.4-1.6,5.5-2.3,9.3-2.3s6.4.7,8.9,2.1c2.5,1.4,4.5,3.5,5.9,6.2,1.4,2.8,2.1,6.2,2.1,10.3v31.4h-9.6v-30.3c0-3.6-.9-6.4-2.8-8.4-1.9-2-4.5-3-7.8-3s-4.3.5-6.1,1.4c-1.8,1-3.2,2.4-4.2,4.2-1,1.9-1.5,4.1-1.5,6.7Z"/>
    <path class="cls-3" d="M570.5,726.1c-4.6,0-8.7-1.1-12.1-3.2-3.5-2.1-6.1-5.1-8-8.9-1.9-3.8-2.9-8.3-2.9-13.4s1-9.6,2.9-13.4c1.9-3.8,4.6-6.8,8-8.9,3.5-2.1,7.5-3.2,12.1-3.2s8.7,1.1,12.1,3.2c3.5,2.1,6.1,5.1,8,8.9,1.9,3.8,2.9,8.3,2.9,13.4s-1,9.6-2.9,13.4c-1.9,3.8-4.6,6.8-8,8.9-3.5,2.1-7.5,3.2-12.1,3.2ZM570.5,718.1c3,0,5.5-.8,7.5-2.4,2-1.6,3.4-3.7,4.4-6.3,1-2.6,1.4-5.5,1.4-8.7s-.5-6.1-1.4-8.7c-1-2.6-2.4-4.8-4.4-6.4-2-1.6-4.5-2.4-7.5-2.4s-5.5.8-7.5,2.4c-2,1.6-3.5,3.7-4.4,6.4-1,2.7-1.4,5.6-1.4,8.7s.5,6.1,1.4,8.7c1,2.6,2.4,4.8,4.4,6.3,2,1.6,4.5,2.4,7.5,2.4Z"/>
    <path class="cls-3" d="M609.9,695.8v29.3h-9.6v-49.4h9.2v8h.6c1.1-2.6,2.9-4.7,5.4-6.3,2.4-1.6,5.5-2.4,9.2-2.4s6.3.7,8.8,2.1c2.5,1.4,4.5,3.5,5.9,6.3,1.4,2.8,2.1,6.2,2.1,10.3v31.4h-9.6v-30.3c0-3.6-.9-6.4-2.8-8.4-1.9-2-4.4-3-7.7-3s-4.2.5-5.9,1.4-3.1,2.4-4.1,4.2c-1,1.9-1.5,4.1-1.5,6.7Z"/>
    <path class="cls-3" d="M655,668.1c-1.7,0-3.1-.6-4.3-1.7-1.2-1.1-1.8-2.5-1.8-4s.6-2.9,1.8-4.1c1.2-1.1,2.6-1.7,4.3-1.7s3.1.6,4.3,1.7c1.2,1.1,1.8,2.5,1.8,4s-.6,2.9-1.8,4.1c-1.2,1.1-2.6,1.7-4.3,1.7ZM650.2,725.1v-49.4h9.6v49.4h-9.6Z"/>
    <path class="cls-3" d="M666,725.1v-6.6l26.8-34v-.4h-25.9v-8.4h37.9v7l-25.7,33.6v.5h26.6v8.4h-39.7Z"/>
    <path class="cls-3" d="M731.8,726.1c-4.9,0-9.1-1-12.6-3.1-3.5-2.1-6.2-5-8.1-8.8-1.9-3.8-2.8-8.3-2.8-13.4s.9-9.5,2.8-13.4c1.9-3.9,4.6-6.9,8-9,3.4-2.2,7.4-3.3,12-3.3s5.5.5,8.1,1.4c2.6.9,5,2.4,7,4.3,2.1,2,3.7,4.5,4.9,7.7,1.2,3.1,1.8,7,1.8,11.4v3.4h-39.3v-7.2h29.9c0-2.5-.5-4.8-1.5-6.7-1-2-2.5-3.5-4.3-4.6-1.9-1.1-4-1.7-6.5-1.7s-5.1.7-7.1,2c-2,1.3-3.6,3-4.6,5.1-1.1,2.1-1.6,4.4-1.6,6.9v5.6c0,3.3.6,6.1,1.8,8.4,1.2,2.3,2.8,4.1,4.9,5.3,2.1,1.2,4.6,1.8,7.4,1.8s3.5-.3,5-.8c1.5-.5,2.8-1.3,3.9-2.4,1.1-1,1.9-2.3,2.5-3.9l9.1,1.6c-.7,2.7-2,5-3.9,7-1.9,2-4.2,3.6-7,4.7-2.8,1.1-6,1.7-9.6,1.7Z"/>
  </g>
  <path id="Path_77" data-name="Path 77" class="cls-1" d="M636.4,372.1s5.9-136.3-8.3-145.3c-18.7-11.7-206,64.5-206,64.5l5.7,65.6c-11.7-2.5-39.8-12.2-47.4-5.8-15.4,12.7-10.8,166.7-10.8,166.7,0,0,169.7,118.8,198.7,106.3,24.1-10.5,41.5-209.1,41.5-209.1-9.3-2.8-46.2-16.3-47.3-16.6-73.6-23.1-89.2-27.1-89.2-27.1,0,0,.6,24.2,1.4,28l101.7,40.1s-13.6,127.6-33.6,133.5c-28.9,8.5-149.6-61.8-149.6-61.8,0,0,2.5-128.9,4.9-134.6,2.2-5.1,33.2,8,33.2,8,0,0,2.1,94,21.2,105.2,29.7,17.3,115.6-56.9,115.4-57.9l-25.1-13.2s-56.3,45.9-69.9,36.4c-22.3-15.8-13.4-140.6-13.4-140.6,0,0,135.2-69.7,147.7-62.9,9.5,5,9.1,111.9,9.1,111.9l-37.8,29.5,20.8,7.6,36.9-28.3h0Z"/>
</svg>