<svg width="31" height="30" viewBox="0 0 31 30" fill="none" xmlns="http://www.w3.org/2000/svg">
<rect x="0.503662" width="30" height="30" rx="15" fill="#7F7F7F" fill-opacity="0.2" style="mix-blend-mode:luminosity"/>
<rect x="0.503662" width="30" height="30" rx="15" fill="#C2C2C2" fill-opacity="0.5" style="mix-blend-mode:overlay"/>
<path d="M10.4255 20.4531C10.2953 20.3229 10.2094 20.1719 10.1677 20C10.1261 19.8229 10.1261 19.6484 10.1677 19.4766C10.2094 19.3047 10.2927 19.1562 10.4177 19.0312L14.0818 15.3672L10.4177 11.7109C10.2927 11.5859 10.2094 11.4375 10.1677 11.2656C10.1261 11.0938 10.1261 10.9219 10.1677 10.75C10.2094 10.5729 10.2953 10.4193 10.4255 10.2891C10.5505 10.1641 10.699 10.0807 10.8708 10.0391C11.0479 9.99219 11.2224 9.99219 11.3943 10.0391C11.5714 10.0807 11.7224 10.1615 11.8474 10.2812L15.5037 13.9453L19.1677 10.2891C19.2927 10.1641 19.4386 10.0807 19.6052 10.0391C19.7771 9.99219 19.949 9.99219 20.1208 10.0391C20.2979 10.0807 20.449 10.1667 20.574 10.2969C20.7094 10.4219 20.7979 10.5729 20.8396 10.75C20.8813 10.9219 20.8813 11.0938 20.8396 11.2656C20.7979 11.4375 20.712 11.5859 20.5818 11.7109L16.9333 15.3672L20.5818 19.0312C20.712 19.1562 20.7979 19.3047 20.8396 19.4766C20.8813 19.6484 20.8813 19.8229 20.8396 20C20.7979 20.1719 20.7094 20.3203 20.574 20.4453C20.449 20.5755 20.2979 20.6641 20.1208 20.7109C19.949 20.7526 19.7771 20.7526 19.6052 20.7109C19.4386 20.6693 19.2927 20.5833 19.1677 20.4531L15.5037 16.7969L11.8474 20.4609C11.7224 20.5807 11.5714 20.6641 11.3943 20.7109C11.2224 20.7526 11.0479 20.7526 10.8708 20.7109C10.699 20.6641 10.5505 20.5781 10.4255 20.4531Z" fill="#7F7F7F" fill-opacity="0.5" style="mix-blend-mode:luminosity"/>
<path d="M10.4255 20.4531C10.2953 20.3229 10.2094 20.1719 10.1677 20C10.1261 19.8229 10.1261 19.6484 10.1677 19.4766C10.2094 19.3047 10.2927 19.1562 10.4177 19.0312L14.0818 15.3672L10.4177 11.7109C10.2927 11.5859 10.2094 11.4375 10.1677 11.2656C10.1261 11.0938 10.1261 10.9219 10.1677 10.75C10.2094 10.5729 10.2953 10.4193 10.4255 10.2891C10.5505 10.1641 10.699 10.0807 10.8708 10.0391C11.0479 9.99219 11.2224 9.99219 11.3943 10.0391C11.5714 10.0807 11.7224 10.1615 11.8474 10.2812L15.5037 13.9453L19.1677 10.2891C19.2927 10.1641 19.4386 10.0807 19.6052 10.0391C19.7771 9.99219 19.949 9.99219 20.1208 10.0391C20.2979 10.0807 20.449 10.1667 20.574 10.2969C20.7094 10.4219 20.7979 10.5729 20.8396 10.75C20.8813 10.9219 20.8813 11.0938 20.8396 11.2656C20.7979 11.4375 20.712 11.5859 20.5818 11.7109L16.9333 15.3672L20.5818 19.0312C20.712 19.1562 20.7979 19.3047 20.8396 19.4766C20.8813 19.6484 20.8813 19.8229 20.8396 20C20.7979 20.1719 20.7094 20.3203 20.574 20.4453C20.449 20.5755 20.2979 20.6641 20.1208 20.7109C19.949 20.7526 19.7771 20.7526 19.6052 20.7109C19.4386 20.6693 19.2927 20.5833 19.1677 20.4531L15.5037 16.7969L11.8474 20.4609C11.7224 20.5807 11.5714 20.6641 11.3943 20.7109C11.2224 20.7526 11.0479 20.7526 10.8708 20.7109C10.699 20.6641 10.5505 20.5781 10.4255 20.4531Z" fill="#C2C2C2" style="mix-blend-mode:overlay"/>
</svg>
