<svg width="18" height="19" viewBox="0 0 18 19" fill="none" xmlns="http://www.w3.org/2000/svg">
<path d="M9.09961 6.02051C9.63086 6.11458 10.0736 6.25293 10.4277 6.43555C10.7819 6.61263 11.089 6.83398 11.3491 7.09961C12.0243 7.76921 12.4725 8.50798 12.6938 9.31592C12.9152 10.1183 12.9124 10.9207 12.6855 11.7231C12.4642 12.5256 12.0215 13.2588 11.3574 13.9229L8.51855 16.77C7.86003 17.4285 7.12956 17.8685 6.32715 18.0898C5.52474 18.3167 4.71956 18.3195 3.91162 18.0981C3.10921 17.8768 2.37044 17.4285 1.69531 16.7534C1.02572 16.0838 0.580241 15.3478 0.358887 14.5454C0.137533 13.7375 0.137533 12.9323 0.358887 12.1299C0.585775 11.3275 1.02848 10.5942 1.68701 9.93018L4.12744 7.49805C4.08317 7.76921 4.07487 8.0542 4.10254 8.35303C4.13574 8.64632 4.21045 8.92301 4.32666 9.18311L2.69971 10.8101C2.21826 11.2915 1.8973 11.8228 1.73682 12.4038C1.57633 12.9849 1.57633 13.5687 1.73682 14.1553C1.8973 14.7363 2.21826 15.2703 2.69971 15.7573C3.18115 16.2388 3.7124 16.557 4.29346 16.7119C4.88005 16.8724 5.46387 16.8724 6.04492 16.7119C6.62598 16.5514 7.15723 16.2305 7.63867 15.749L10.353 13.043C10.8345 12.5615 11.1527 12.0303 11.3076 11.4492C11.4681 10.8682 11.4681 10.2871 11.3076 9.70605C11.1471 9.11947 10.8262 8.58268 10.3447 8.0957C10.0736 7.82454 9.74984 7.60872 9.37354 7.44824C9.00277 7.28776 8.54346 7.18538 7.99561 7.14111L9.09961 6.02051ZM8.89209 12.8604C8.36084 12.7663 7.91813 12.6307 7.56396 12.4536C7.2098 12.271 6.90267 12.0469 6.64258 11.7812C5.96745 11.1117 5.51921 10.3757 5.29785 9.57324C5.0765 8.7653 5.0765 7.96012 5.29785 7.15771C5.52474 6.35531 5.97021 5.62207 6.63428 4.95801L9.46484 2.11914C10.1289 1.45508 10.8621 1.01237 11.6646 0.791016C12.467 0.564128 13.2694 0.561361 14.0718 0.782715C14.8797 1.00407 15.6213 1.45231 16.2964 2.12744C16.966 2.79704 17.4115 3.53581 17.6328 4.34375C17.8542 5.14616 17.8514 5.94857 17.6245 6.75098C17.4032 7.55339 16.9632 8.28662 16.3047 8.95068L13.8643 11.3828C13.9085 11.1117 13.9141 10.8294 13.8809 10.5361C13.8532 10.2428 13.7812 9.96338 13.665 9.69775L15.292 8.0708C15.7734 7.58936 16.0944 7.05811 16.2549 6.47705C16.4154 5.896 16.4154 5.31494 16.2549 4.73389C16.0944 4.1473 15.7734 3.61328 15.292 3.13184C14.805 2.64486 14.271 2.32389 13.6899 2.16895C13.1089 2.00846 12.5278 2.00846 11.9468 2.16895C11.3657 2.32943 10.8317 2.65039 10.3447 3.13184L7.63867 5.83789C7.15723 6.31934 6.83626 6.85059 6.67578 7.43164C6.5153 8.0127 6.5153 8.59652 6.67578 9.18311C6.83626 9.76416 7.15999 10.2982 7.64697 10.7852C7.91813 11.0563 8.2391 11.2721 8.60986 11.4326C8.98617 11.5931 9.44824 11.6955 9.99609 11.7397L8.89209 12.8604Z" fill="white"/>
</svg>
