<svg width="26" height="22" viewBox="0 0 26 22" fill="none" xmlns="http://www.w3.org/2000/svg">
<path d="M13.2583 21.8145C12.0741 21.8145 10.9424 21.6291 9.86328 21.2583C8.78971 20.8931 7.80192 20.3784 6.8999 19.7144C5.99788 19.0503 5.21484 18.2673 4.55078 17.3652C3.88672 16.4632 3.3693 15.4727 2.99854 14.3936C2.6333 13.3145 2.45068 12.1855 2.45068 11.0068C2.45068 9.82259 2.6333 8.69368 2.99854 7.62012C3.36377 6.54102 3.87842 5.55046 4.54248 4.64844C5.21208 3.74642 5.99512 2.96338 6.8916 2.29932C7.79362 1.62972 8.78141 1.1123 9.85498 0.74707C10.9341 0.376302 12.0658 0.190918 13.25 0.190918C14.4342 0.190918 15.5659 0.376302 16.645 0.74707C17.7241 1.1123 18.7147 1.62972 19.6167 2.29932C20.5187 2.96338 21.3018 3.74642 21.9658 4.64844C22.6354 5.55046 23.1528 6.54102 23.5181 7.62012C23.8888 8.69368 24.0742 9.82259 24.0742 11.0068C24.0742 12.1855 23.8888 13.3145 23.5181 14.3936C23.1528 15.4727 22.6354 16.4632 21.9658 17.3652C21.3018 18.2673 20.5187 19.0503 19.6167 19.7144C18.7147 20.3784 17.7241 20.8931 16.645 21.2583C15.5715 21.6291 14.4425 21.8145 13.2583 21.8145ZM13.2583 20.2705C14.2876 20.2705 15.2643 20.1128 16.1885 19.7974C17.1182 19.4875 17.9676 19.0503 18.7368 18.4858C19.5116 17.9214 20.1812 17.2546 20.7456 16.4854C21.3101 15.7106 21.7472 14.8612 22.0571 13.937C22.367 13.0073 22.522 12.0306 22.522 11.0068C22.522 9.97754 22.367 9.00081 22.0571 8.07666C21.7472 7.14697 21.3073 6.29753 20.7373 5.52832C20.1729 4.75358 19.5033 4.08398 18.7285 3.51953C17.9593 2.95508 17.1099 2.5179 16.1802 2.20801C15.256 1.89811 14.2793 1.74316 13.25 1.74316C12.2262 1.74316 11.2495 1.89811 10.3198 2.20801C9.39567 2.5179 8.54899 2.95508 7.77979 3.51953C7.01058 4.08398 6.34375 4.75358 5.7793 5.52832C5.21484 6.29753 4.77767 7.14697 4.46777 8.07666C4.15788 9.00081 4.00293 9.97754 4.00293 11.0068C4.00293 12.0306 4.15788 13.0073 4.46777 13.937C4.77767 14.8612 5.21484 15.7106 5.7793 16.4854C6.34928 17.2546 7.01888 17.9214 7.78809 18.4858C8.55729 19.0503 9.40397 19.4875 10.3281 19.7974C11.2578 20.1128 12.2345 20.2705 13.2583 20.2705ZM8.29443 12.4761C7.88493 12.4761 7.53353 12.3322 7.24023 12.0444C6.95247 11.7567 6.80859 11.408 6.80859 10.9985C6.80859 10.589 6.95247 10.2404 7.24023 9.95264C7.53353 9.65934 7.88493 9.5127 8.29443 9.5127C8.6984 9.5127 9.04427 9.65934 9.33203 9.95264C9.62533 10.2404 9.77197 10.589 9.77197 10.9985C9.77197 11.408 9.62533 11.7567 9.33203 12.0444C9.04427 12.3322 8.6984 12.4761 8.29443 12.4761ZM13.25 12.4761C12.8405 12.4761 12.4919 12.3322 12.2041 12.0444C11.9163 11.7567 11.7725 11.408 11.7725 10.9985C11.7725 10.589 11.9163 10.2404 12.2041 9.95264C12.4919 9.65934 12.8405 9.5127 13.25 9.5127C13.6595 9.5127 14.0081 9.65934 14.2959 9.95264C14.5892 10.2404 14.7358 10.589 14.7358 10.9985C14.7358 11.408 14.5892 11.7567 14.2959 12.0444C14.0081 12.3322 13.6595 12.4761 13.25 12.4761ZM18.2139 12.4761C17.8044 12.4761 17.453 12.3322 17.1597 12.0444C16.8719 11.7567 16.728 11.408 16.728 10.9985C16.728 10.589 16.8719 10.2404 17.1597 9.95264C17.453 9.65934 17.8044 9.5127 18.2139 9.5127C18.6234 9.5127 18.972 9.65934 19.2598 9.95264C19.5475 10.2404 19.6914 10.589 19.6914 10.9985C19.6914 11.408 19.5475 11.7567 19.2598 12.0444C18.972 12.3322 18.6234 12.4761 18.2139 12.4761Z" fill="#D0BCFF"/>
</svg>
