<?xml version="1.0" encoding="iso-8859-1"?>
<!-- Generator: Adobe Illustrator 19.0.0, SVG Export Plug-In . SVG Version: 6.00 Build 0)  -->
<svg version="1.1" id="Capa_1" xmlns="http://www.w3.org/2000/svg" xmlns:xlink="http://www.w3.org/1999/xlink" x="0px" y="0px"
	 viewBox="0 0 512 512" style="enable-background:new 0 0 512 512;" xml:space="preserve">
<rect x="43.33" y="102.56" style="fill:#E9EAEB;" width="425.34" height="364.05"/>
<rect x="414.67" y="102.56" style="fill:#B9BBC1;" width="54" height="364.05"/>
<path style="fill:#FDC74F;" d="M470.153,102.558H41.847V42.796c0-4.775,3.87-8.645,8.645-8.645h411.016
	c4.775,0,8.645,3.87,8.645,8.645L470.153,102.558L470.153,102.558z"/>
<path style="fill:#FCA629;" d="M461.508,34.151h-45.355V79.14h54V42.796C470.153,38.021,466.282,34.151,461.508,34.151z"/>
<path style="fill:#E60D28;" d="M43.332,210.929L43.332,210.929c-19.576,0-35.445-15.869-35.445-35.445v-28.877h70.889v28.877
	C78.776,195.06,62.907,210.929,43.332,210.929z"/>
<path style="fill:#F2F2F2;" d="M114.221,210.929L114.221,210.929c-19.576,0-35.445-15.869-35.445-35.445v-28.877h70.889v28.877
	C149.666,195.06,133.797,210.929,114.221,210.929z"/>
<path style="fill:#E60D28;" d="M185.111,210.929L185.111,210.929c-19.576,0-35.445-15.869-35.445-35.445v-28.877h70.889v28.877
	C220.555,195.06,204.686,210.929,185.111,210.929z"/>
<path style="fill:#F2F2F2;" d="M256,210.929L256,210.929c-19.576,0-35.445-15.869-35.445-35.445v-28.877h70.889v28.877
	C291.445,195.06,275.576,210.929,256,210.929z"/>
<path style="fill:#E60D28;" d="M326.89,210.929L326.89,210.929c-19.576,0-35.445-15.869-35.445-35.445v-28.877h70.889v28.877
	C362.334,195.06,346.465,210.929,326.89,210.929z"/>
<path style="fill:#F2F2F2;" d="M397.779,210.929L397.779,210.929c-19.576,0-35.445-15.869-35.445-35.445v-28.877h70.889v28.877
	C433.224,195.06,417.355,210.929,397.779,210.929z"/>
<path style="fill:#E60D28;" d="M468.668,210.929L468.668,210.929c-19.576,0-35.445-15.869-35.445-35.445v-28.877h70.889v28.877
	C504.113,195.06,488.244,210.929,468.668,210.929z"/>
<polygon style="fill:#FC502A;" points="78.776,146.608 7.887,146.608 41.811,79.14 103.008,79.14 "/>
<polygon style="fill:#FFFFFF;" points="149.666,146.608 78.776,146.608 103.008,79.14 164.205,79.14 "/>
<polygon style="fill:#FC502A;" points="220.555,146.608 149.666,146.608 164.205,79.14 225.402,79.14 "/>
<polygon style="fill:#FFFFFF;" points="291.445,146.608 220.555,146.608 225.402,79.14 286.598,79.14 "/>
<polygon style="fill:#FC502A;" points="362.334,146.608 291.445,146.608 286.598,79.14 347.795,79.14 "/>
<polygon style="fill:#FFFFFF;" points="433.224,146.608 362.334,146.608 347.795,79.14 408.992,79.14 "/>
<polygon style="fill:#FC502A;" points="504.113,146.608 433.224,146.608 408.992,79.14 470.189,79.14 "/>
<path style="fill:#8B8996;" d="M488.311,433.349H23.688c-8.941,0-16.188,7.248-16.188,16.189v23.723
	c0,2.534,2.055,4.589,4.589,4.589h487.822c2.534,0,4.589-2.055,4.589-4.589v-23.723C504.5,440.597,497.252,433.349,488.311,433.349z
	"/>
<path style="fill:#706F7F;" d="M488.312,433.349h-37.978v44.5h49.578c2.534,0,4.589-2.054,4.589-4.589v-23.723
	C504.5,440.597,497.252,433.349,488.312,433.349z"/>
<path style="fill:#00C6C8;" d="M426.774,385.77H208.45c-3.562,0-6.45-2.888-6.45-6.45V259.185c0-3.562,2.888-6.45,6.45-6.45h218.324
	c3.562,0,6.45,2.888,6.45,6.45V379.32C433.224,382.883,430.336,385.77,426.774,385.77z"/>
<path style="fill:#0FB0C0;" d="M426.774,252.735h-47.717V385.77h47.717c3.562,0,6.45-2.888,6.45-6.45V259.185
	C433.224,255.622,430.336,252.735,426.774,252.735z"/>
<path style="fill:#00C6C8;" d="M171.336,433.349H71.727V259.185c0-3.562,2.888-6.45,6.45-6.45h86.709c3.562,0,6.45,2.888,6.45,6.45
	L171.336,433.349L171.336,433.349z"/>
<path style="fill:#0FB0C0;" d="M164.886,252.735h-47.717V433.35h54.167V259.185C171.336,255.622,168.448,252.735,164.886,252.735z"
	/>
<path d="M143.5,354.755c4.142,0,7.5-3.358,7.5-7.5v-13.5c0-4.142-3.358-7.5-7.5-7.5s-7.5,3.358-7.5,7.5v13.5
	C136,351.397,139.358,354.755,143.5,354.755z"/>
<path d="M488.312,425.849h-12.143V217.76c20.115-3.56,35.445-21.155,35.445-42.276v-28.876c0-0.147-0.014-0.291-0.022-0.436
	c-0.005-0.081-0.005-0.162-0.012-0.243c-0.027-0.296-0.068-0.587-0.128-0.871c-0.003-0.017-0.009-0.033-0.013-0.049
	c-0.059-0.273-0.136-0.539-0.224-0.8c-0.022-0.066-0.048-0.132-0.072-0.197c-0.083-0.224-0.175-0.442-0.278-0.655
	c-0.019-0.039-0.031-0.08-0.05-0.118L477.653,77.29V42.796c0-8.902-7.243-16.145-16.145-16.145H120.456c-4.142,0-7.5,3.358-7.5,7.5
	s3.358,7.5,7.5,7.5h341.052c0.631,0,1.145,0.514,1.145,1.145V71.64H49.347V42.796c0-0.631,0.514-1.145,1.145-1.145H85.56
	c4.142,0,7.5-3.358,7.5-7.5s-3.358-7.5-7.5-7.5H50.492c-8.902,0-16.145,7.243-16.145,16.145V77.29L1.186,143.239
	c-0.019,0.039-0.032,0.08-0.05,0.118c-0.103,0.213-0.195,0.431-0.278,0.655c-0.024,0.066-0.05,0.131-0.072,0.197
	c-0.088,0.261-0.165,0.527-0.224,0.8c-0.004,0.016-0.009,0.032-0.013,0.049c-0.06,0.285-0.102,0.575-0.128,0.871
	c-0.007,0.081-0.007,0.162-0.012,0.243c-0.008,0.145-0.022,0.289-0.022,0.436v28.876c0,21.12,15.33,38.716,35.445,42.276v208.089
	H23.688C10.626,425.849,0,436.476,0,449.538v23.722c0,6.666,5.423,12.089,12.089,12.089h487.822c6.666,0,12.089-5.423,12.089-12.089
	v-23.722C512,436.476,501.374,425.849,488.312,425.849z M496.613,175.485c0,15.409-12.536,27.945-27.945,27.945
	s-27.945-12.536-27.945-27.945v-21.376h55.89L496.613,175.485L496.613,175.485z M465.565,86.64l26.382,52.468h-53.448L419.655,86.64
	H465.565z M403.716,86.64l18.844,52.468h-54.17L357.083,86.64H403.716z M425.724,154.108v21.376
	c0,15.409-12.536,27.945-27.945,27.945s-27.945-12.536-27.945-27.945v-21.376H425.724z M341.739,86.64l11.307,52.468h-54.62
	l-3.769-52.468H341.739z M354.834,154.108v21.376c0,15.409-12.536,27.945-27.944,27.945s-27.945-12.536-27.945-27.945v-21.376
	H354.834z M232.382,86.64h47.235l3.769,52.468h-54.773L232.382,86.64z M228.055,154.108h55.89v21.376
	c0,15.409-12.536,27.945-27.945,27.945s-27.945-12.536-27.945-27.945V154.108z M256,218.429c14.704,0,27.701-7.431,35.445-18.732
	c7.744,11.301,20.741,18.732,35.445,18.732s27.701-7.431,35.444-18.732c7.744,11.301,20.741,18.732,35.445,18.732
	s27.701-7.431,35.445-18.732c6.396,9.334,16.379,16.016,27.945,18.063v208.089H178.836V259.185c0-7.692-6.258-13.95-13.95-13.95
	H78.177c-7.692,0-13.95,6.258-13.95,13.95v166.664H50.832V217.76c11.566-2.047,21.549-8.729,27.945-18.063
	c7.744,11.301,20.741,18.732,35.445,18.732s27.701-7.431,35.445-18.732c7.744,11.301,20.741,18.732,35.444,18.732
	s27.701-7.431,35.445-18.732C228.299,210.998,241.296,218.429,256,218.429z M163.836,260.235v165.614H79.227V260.235H163.836z
	 M86.276,175.485v-21.376h55.89v21.376c0,15.409-12.536,27.945-27.945,27.945S86.276,190.893,86.276,175.485z M170.261,86.64h47.082
	l-3.769,52.468h-54.62L170.261,86.64z M157.166,154.108h55.889v21.376c0,15.409-12.536,27.945-27.945,27.945
	s-27.944-12.536-27.944-27.945L157.166,154.108L157.166,154.108z M154.916,86.64l-11.307,52.468h-54.17l18.844-52.468H154.916z
	 M46.435,86.64h45.91l-18.844,52.468H20.053L46.435,86.64z M15.387,175.485v-21.376h55.89v21.376
	c0,15.409-12.536,27.945-27.945,27.945S15.387,190.893,15.387,175.485z M497,470.349H15v-20.812c0-4.791,3.897-8.688,8.688-8.688
	h464.623c4.791,0,8.688,3.897,8.688,8.688v20.812H497z"/>
<path d="M194.5,259.185v120.136c0,7.692,6.258,13.95,13.95,13.95h218.323c7.692,0,13.95-6.258,13.95-13.95V259.185
	c0-7.692-6.258-13.95-13.95-13.95H335.06c-4.142,0-7.5,3.358-7.5,7.5c0,4.142,3.358,7.5,7.5,7.5h90.664V378.27H209.5V260.235h90.25
	c4.142,0,7.5-3.358,7.5-7.5c0-4.142-3.358-7.5-7.5-7.5h-91.3C200.758,245.235,194.5,251.492,194.5,259.185z"/>
<g>
</g>
<g>
</g>
<g>
</g>
<g>
</g>
<g>
</g>
<g>
</g>
<g>
</g>
<g>
</g>
<g>
</g>
<g>
</g>
<g>
</g>
<g>
</g>
<g>
</g>
<g>
</g>
<g>
</g>
</svg>
