<svg height="512" viewBox="0 0 512 512" width="512" xmlns="http://www.w3.org/2000/svg"><g id="Filled_outline" data-name="Filled outline"><path d="m416 24a57.661 57.661 0 0 0 -54.7 75.9l22.7 68.1h-248v320h256a96 96 0 0 0 96-96v-224z" fill="#fdbf92"/><rect fill="#fdb683" height="80" rx="40" width="128" x="80" y="408"/><path d="m256 128a56 56 0 1 1 56-56 56.063 56.063 0 0 1 -56 56zm0-96a40 40 0 1 0 40 40 40.045 40.045 0 0 0 -40-40z" fill="#ffb431"/><path d="m240 88h32v56h-32z" fill="#c7483c"/><circle cx="272" cy="304" fill="#fdb683" r="168"/><path d="m176 176-50.343-50.343a8 8 0 0 0 -11.314 0l-20.686 20.686a8 8 0 0 0 0 11.314l50.343 50.343z" fill="#c7483c"/><path d="m336 176 50.343-50.343a8 8 0 0 1 11.314 0l20.686 20.686a8 8 0 0 1 0 11.314l-50.343 50.343z" fill="#c7483c"/><circle cx="256" cy="288" fill="#d65246" r="168"/><circle cx="256" cy="288" fill="#2c86d1" r="136"/><circle cx="256" cy="288" fill="#348ed8" r="112"/><path d="m224 56h64v32h-64z" fill="#d65246"/><g fill="#ffb431"><path d="m248 368h16v32h-16z"/><path d="m248 176h16v32h-16z"/><path d="m296 355.139h16v32h-16z" transform="matrix(.866 -.5 .5 .866 -144.841 201.723)"/><path d="m200 188.861h16v32h-16z" transform="matrix(.866 -.5 .5 .866 -74.564 131.446)"/><path d="m331.139 320h15.999v32h-15.999z" transform="matrix(.5 -.866 .866 .5 -121.416 461.7)"/><path d="m164.862 224h15.999v32h-15.999z" transform="matrix(.5 -.866 .866 .5 -121.416 269.701)"/><path d="m336 280h32v16h-32z"/><path d="m144 280h32v16h-32z"/><path d="m156.862 328h32v15.999h-32z" transform="matrix(.866 -.5 .5 .866 -144.847 131.456)"/><path d="m288 196.861h32v16h-32z" transform="matrix(.5 -.866 .866 .5 -25.415 365.703)"/><path d="m192 363.139h32v16h-32z" transform="matrix(.5 -.866 .866 .5 -217.416 365.703)"/><circle cx="256" cy="288" r="24"/><path d="m263.226 248h95.262v16h-95.262z" transform="matrix(.864 -.504 .504 .864 -86.645 191.498)"/></g><rect fill="#fdc8a2" height="80" rx="40" width="128" x="24" y="168"/><rect fill="#fdc8a2" height="80" rx="40" width="128" x="24" y="248"/><rect fill="#fdc8a2" height="80" rx="40" width="128" x="48" y="328"/><rect fill="#fdc8a2" height="80" rx="40" width="128" x="64" y="408"/><rect fill="#fdb683" height="16" rx="8" width="64" x="56" y="240"/><rect fill="#fdb683" height="16" rx="6.928" width="48" x="72" y="320"/><rect fill="#fdb683" height="16" rx="6.928" width="48" x="96" y="400"/><path d="m495.155 164.422-72-144a8 8 0 0 0 -7.155-4.422 65.655 65.655 0 0 0 -62.29 86.419l11.137 33.42-7.945 7.945c-1.062.438-10.406-6.787-11.535-7.448-.089-.052-.178-.1-.267-.15a173.756 173.756 0 0 0 -53.871-20.663 56 56 0 1 0 -70.44.014 175.045 175.045 0 0 0 -65.679 28.263l-23.794-23.8a16.024 16.024 0 0 0 -22.633 0l-20.683 20.683a15.96 15.96 0 0 0 -2.53 19.317h-21.47a47.633 47.633 0 0 0 -38.4 19.19l12.8 9.61a31.764 31.764 0 0 1 25.6-12.8h48a32 32 0 0 1 0 64h-48a32.036 32.036 0 0 1 -31.36-38.408l-15.68-3.184a48.021 48.021 0 0 0 20.547 49.592 47.974 47.974 0 0 0 15.874 86.8 47.95 47.95 0 0 0 17.851 78.17 47.967 47.967 0 0 0 32.768 83.03h48a48.066 48.066 0 0 0 47.519-41.272 175.158 175.158 0 0 0 56.481 9.272c97.047 0 176-78.953 176-176a174.232 174.232 0 0 0 -31.787-100.9l23.787-23.783a16 16 0 0 0 0-22.634l-20.684-20.683a16.024 16.024 0 0 0 -22.633 0l-3.186 3.186-8.608-25.831a49.666 49.666 0 0 1 42.28-65.131l68.831 137.665v222.111a88.1 88.1 0 0 1 -88 88h-192v16h192a104.118 104.118 0 0 0 104-104v-224a7.994 7.994 0 0 0 -.845-3.578zm-223.155-84.422h-32v-16h32zm-24 16h16v16.187c-5.311-.236-10.7-.236-16 0zm8-64a40 40 0 0 1 24 72v-8a8 8 0 0 0 8-8v-32a8 8 0 0 0 -8-8h-48a8 8 0 0 0 -8 8v32a8 8 0 0 0 8 8v8a40 40 0 0 1 24-72zm-148.685 128-8-8 20.685-20.683 22.329 22.329q-5.811 4.92-11.2 10.343a47.713 47.713 0 0 0 -19.129-3.989zm-75.315 128a32.036 32.036 0 0 1 32-32h48a32 32 0 0 1 0 64h-48a32.036 32.036 0 0 1 -32-32zm56 112a32 32 0 0 1 0-64h48a32 32 0 0 1 0 64zm64 80h-48a32 32 0 0 1 0-64h48a32 32 0 0 1 0 64zm104-32a159.058 159.058 0 0 1 -57.176-10.524 48.179 48.179 0 0 0 -30.056-34.448 47.89 47.89 0 0 0 8.131-60.121l13.821-7.978-8-13.858-16.608 9.587a47.855 47.855 0 0 0 -19.494-9.46 47.9 47.9 0 0 0 12.7-25.2h16.682v-15.998h-16.679a48.079 48.079 0 0 0 -20.828-32 47.925 47.925 0 0 0 6.3-75.01 159.939 159.939 0 0 1 126.463-44.265c80.049 7.741 144.744 78.115 144.744 159.275 0 88.225-71.776 160-160 160zm136-316.683 20.683 20.683-22.34 22.34a176.614 176.614 0 0 0 -20.681-20.689z"/><path d="m256 144a144.057 144.057 0 0 0 -93.179 34.208l10.358 12.192a127.97 127.97 0 1 1 30.121 214.283l-6.6 14.578a142.89 142.89 0 0 0 59.3 12.739c79.4 0 144-64.6 144-144s-64.6-144-144-144z"/><path d="m248 368h16v32h-16z"/><path d="m248 176h16v32h-16z"/><path d="m296 355.139h16v32h-16z" transform="matrix(.866 -.5 .5 .866 -144.841 201.723)"/><path d="m200 188.861h16v32h-16z" transform="matrix(.866 -.5 .5 .866 -74.564 131.446)"/><path d="m331.139 320h15.999v32h-15.999z" transform="matrix(.5 -.866 .866 .5 -121.416 461.7)"/><path d="m164.862 224h15.999v32h-15.999z" transform="matrix(.5 -.866 .866 .5 -121.416 269.701)"/><path d="m336 280h32v16h-32z"/><path d="m288 196.861h32v16h-32z" transform="matrix(.5 -.866 .866 .5 -25.415 365.703)"/><path d="m192 363.139h32v16h-32z" transform="matrix(.5 -.866 .866 .5 -217.416 365.703)"/><path d="m232 288a24 24 0 1 0 47.573-4.489l76.458-44.6-8.062-13.82-76.469 44.609a23.982 23.982 0 0 0 -39.5 18.3zm24-8a8 8 0 1 1 -8 8 8.009 8.009 0 0 1 8-8z"/></g></svg>