<svg width="84" height="87" viewBox="0 0 84 87" fill="none" xmlns="http://www.w3.org/2000/svg">
<path d="M0.742188 58.1515C0.742188 70.3856 8.34445 80.6352 18.5356 80.6352H25.768C18.3712 75.2209 15.3303 67.0375 15.3303 57.7384C15.3714 47.4059 19.3575 40.0077 22.8915 35.544H17.0151C7.85132 35.544 0.742188 45.4633 0.742188 58.1515ZM21.0012 57.821C21.0012 72.9067 32.7128 84.5618 51.8213 84.5618H57.4099C62.711 84.5618 66.656 84.1898 68.8749 83.5698C72.0801 82.7843 75.162 80.8006 75.162 76.9155C75.162 75.3038 74.7513 74.1463 74.2581 73.2787C73.9295 72.7412 74.0115 72.3278 74.5047 72.1212C77.0526 71.0467 79.1482 68.6495 79.1482 65.3844C79.1482 63.5247 78.6142 61.8712 77.7099 60.7556C77.2579 60.1356 77.2992 59.557 78.0798 59.1435C79.8879 58.069 81.2029 55.7544 81.2029 53.0682C81.2029 51.1256 80.5864 49.1005 79.518 48.1085C78.8608 47.5299 78.984 47.1164 79.6413 46.4964C80.9151 45.4219 81.7369 43.5622 81.7369 41.2063C81.7369 37.2386 78.655 33.9734 74.5867 33.9734H60.1219C56.4648 33.9734 54.0401 32.0723 54.0401 29.0138C54.0401 23.5169 60.9029 13.3497 60.9029 6.07556C60.9029 2.23183 58.437 0 55.2318 0C52.2732 0 50.8349 2.02518 49.2734 5.12496C43.1504 17.0694 35.014 26.7407 28.8089 35.0067C23.549 42.0329 21.0012 48.1085 21.0012 57.821Z" fill="#00FF1A"/>
</svg>
