<svg width="98" height="87" viewBox="0 0 98 87" fill="none" xmlns="http://www.w3.org/2000/svg">
<g clip-path="url(#clip0_3213_38018)">
<path d="M12.5429 86.4993H83.7569C91.5677 86.4993 96.3002 81.127 96.3002 74.1617C96.3002 72.0219 95.6566 69.7912 94.5081 67.788L58.8552 6.23705C56.4662 2.09419 52.3768 0 48.1501 0C43.9231 0 39.788 2.09419 37.4448 6.23705L1.79184 67.788C0.551338 69.8369 0 72.0219 0 74.1617C0 81.127 4.7323 86.4993 12.5429 86.4993ZM12.5888 79.3518C9.37271 79.3518 7.44302 76.8931 7.44302 74.116C7.44302 73.2513 7.62679 72.1585 8.13222 71.2024L43.7393 9.69703C44.7041 8.01256 46.45 7.28415 48.1501 7.28415C49.8499 7.28415 51.5497 8.01256 52.5147 9.69703L88.1219 71.2481C88.6272 72.2042 88.8568 73.2513 88.8568 74.116C88.8568 76.8931 86.8352 79.3518 83.6651 79.3518H12.5888Z" fill="#FF0000" fill-opacity="0.85"/>
<path d="M48.1501 55.8152C50.3552 55.8152 51.642 54.5401 51.6876 52.1729L52.3307 28.1807C52.3768 25.8589 50.5392 24.1289 48.104 24.1289C45.6231 24.1289 43.8771 25.8134 43.9231 28.1352L44.5204 52.1729C44.5663 54.4949 45.8527 55.8152 48.1501 55.8152ZM48.1501 70.611C50.8149 70.611 53.1122 68.5168 53.1122 65.8764C53.1122 63.1902 50.8605 61.1413 48.1501 61.1413C45.4392 61.1413 43.188 63.2359 43.188 65.8764C43.188 68.4712 45.4852 70.611 48.1501 70.611Z" fill="#FF0000" fill-opacity="0.85"/>
</g>
<defs>
<clipPath id="clip0_3213_38018">
<rect width="98" height="87" fill="white"/>
</clipPath>
</defs>
</svg>
