<svg width="302" height="243" viewBox="0 0 302 243" fill="none" xmlns="http://www.w3.org/2000/svg">
<ellipse cx="91.5" cy="67" rx="91.5" ry="67" fill="#5C5C5C"/>
<ellipse cx="183.5" cy="76" rx="91.5" ry="67" fill="#5C5C5C"/>
<ellipse cx="172.5" cy="148" rx="129.5" ry="95" fill="#5C5C5C"/>
<circle cx="57" cy="84" r="25" fill="#D9D9D9"/>
<path fill-rule="evenodd" clip-rule="evenodd" d="M57 101C66.3888 101 74 93.3888 74 84C74 74.6112 66.3888 67 57 67C47.6112 67 40 74.6112 40 84C40 93.3888 47.6112 101 57 101ZM57 96C63.6274 96 69 90.6274 69 84C69 77.3726 63.6274 72 57 72C50.3726 72 45 77.3726 45 84C45 90.6274 50.3726 96 57 96Z" fill="black"/>
<rect x="69.2099" y="67.3535" width="5" height="12" transform="rotate(42.3336 69.2099 67.3535)" fill="#D9D9D9"/>
<rect x="53" y="92" width="9" height="12" fill="#D9D9D9"/>
<rect x="36" y="79" width="13" height="8" fill="#D9D9D9"/>
<path d="M57.5 108C56.6667 121.167 62.3 144.8 91.5 134C128 120.5 126.5 114 145 117C151.476 118.05 158.5 128.833 163.5 134" stroke="#A7A7A7" stroke-width="5"/>
<path d="M185.488 204.141V200.443L195.341 201.676V204.141H185.488Z" fill="url(#paint0_linear_315_17154)"/>
<path d="M185.488 204.141V200.443L195.341 201.676V204.141H185.488Z" fill="url(#paint1_linear_315_17154)" fill-opacity="0.7"/>
<path d="M206.427 204.141V201.676L215.049 200.443V204.141H206.427Z" fill="url(#paint2_linear_315_17154)"/>
<path d="M229.829 204.14H216.281V199.211L229.829 194.281V204.14Z" fill="url(#paint3_linear_315_17154)"/>
<path d="M196.573 204.141H173.171C174.533 206.866 176.365 208.571 177.774 209.5L177.777 210.303H192.213L192.205 209.5C193.879 208.201 195.68 205.63 196.573 204.141Z" fill="url(#paint4_linear_315_17154)"/>
<path d="M196.573 204.141H173.171C174.533 206.866 176.365 208.571 177.774 209.5L177.777 210.303H192.213L192.205 209.5C193.879 208.201 195.68 205.63 196.573 204.141Z" fill="url(#paint5_linear_315_17154)" fill-opacity="0.7"/>
<path d="M229.829 204.141H206.427C207.659 207.838 211.354 210.303 213.817 210.303H223.671C223.671 210.303 228.598 209.07 229.829 204.141Z" fill="url(#paint6_linear_315_17154)"/>
<path d="M184.256 200.443V204.14H174.402V196.746L184.256 200.443Z" fill="url(#paint7_linear_315_17154)"/>
<path d="M184.256 200.443V204.14H174.402V196.746L184.256 200.443Z" fill="url(#paint8_linear_315_17154)" fill-opacity="0.7"/>
<path d="M203.68 40.2793C203.68 40.2793 203.68 40.2793 198.233 40.2793C198.233 40.2793 161.916 40.2793 152.836 70.3475V171.597C162.521 201.666 198.233 201.666 198.233 201.666H203.68C203.68 201.666 235.76 201.666 249.682 171.597V70.3475C240.603 40.2793 203.68 40.2793 203.68 40.2793Z" fill="url(#paint9_linear_315_17154)" stroke="#535353"/>
<path d="M205.937 192.344C205.937 192.344 204.726 91.5027 205.937 40.7754C216.227 40.7754 221.069 43.8436 232.569 49.3663C225.911 66.5481 224.095 86.0617 224.095 90.4799V181.912C221.069 192.344 205.937 192.344 205.937 192.344Z" fill="#535353" stroke="#545657"/>
<path d="M202.49 41.0586V200.617" stroke="#A8ADB7" stroke-width="0.5"/>
<path d="M196.549 41.0586V200.617" stroke="#A8ADB7" stroke-width="0.5"/>
<path d="M184.01 204.141C184.01 204.141 184.01 206.236 181.054 208.331H188.444C185.488 206.236 185.488 204.141 185.488 204.141H184.01Z" fill="url(#paint10_linear_315_17154)"/>
<circle cx="217.5" cy="60.5" r="7.5" fill="#ED1B24"/>
<path d="M185.488 204.141V200.443L195.341 201.676V204.141H185.488Z" fill="url(#paint11_linear_315_17154)"/>
<path d="M185.488 204.141V200.443L195.341 201.676V204.141H185.488Z" fill="url(#paint12_linear_315_17154)" fill-opacity="0.7"/>
<path d="M206.427 204.141V201.676L215.049 200.443V204.141H206.427Z" fill="url(#paint13_linear_315_17154)"/>
<path d="M229.829 204.14H216.281V199.211L229.829 194.281V204.14Z" fill="url(#paint14_linear_315_17154)"/>
<path d="M196.573 204.141H173.171C174.533 206.866 176.366 208.571 177.774 209.5L177.777 210.303H192.213L192.206 209.5C193.879 208.201 195.68 205.63 196.573 204.141Z" fill="url(#paint15_linear_315_17154)"/>
<path d="M196.573 204.141H173.171C174.533 206.866 176.366 208.571 177.774 209.5L177.777 210.303H192.213L192.206 209.5C193.879 208.201 195.68 205.63 196.573 204.141Z" fill="url(#paint16_linear_315_17154)" fill-opacity="0.7"/>
<path d="M184 199.5V204H174V195L184 199.5Z" fill="url(#paint17_linear_315_17154)"/>
<path d="M184 199.5V204H174V195L184 199.5Z" fill="url(#paint18_linear_315_17154)" fill-opacity="0.7"/>
<path d="M230 204H206C207.397 206.654 209.276 208.314 210.721 209.219L210.724 210H225.528L225.521 209.219C227.237 207.953 229.084 205.451 230 204Z" fill="url(#paint19_linear_315_17154)"/>
<path d="M230 204H206C207.397 206.654 209.276 208.314 210.721 209.219L210.724 210H225.528L225.521 209.219C227.237 207.953 229.084 205.451 230 204Z" fill="url(#paint20_linear_315_17154)" fill-opacity="0.7"/>
<path d="M203.68 40.2793C203.68 40.2793 203.68 40.2793 198.233 40.2793C198.233 40.2793 161.916 40.2793 152.836 70.3475V171.597C162.521 201.666 198.233 201.666 198.233 201.666H203.68C203.68 201.666 235.76 201.666 249.682 171.597V70.3475C240.603 40.2793 203.68 40.2793 203.68 40.2793Z" fill="url(#paint21_linear_315_17154)" stroke="#535353"/>
<path d="M205.937 192.344C205.937 192.344 204.726 91.5027 205.937 40.7754C216.227 40.7754 221.069 43.8436 232.569 49.3663C225.911 66.5481 224.095 86.0617 224.095 90.4799V181.912C221.069 192.344 205.937 192.344 205.937 192.344Z" fill="#535353" stroke="#545657"/>
<path d="M202.49 41.0586V200.617" stroke="#A8ADB7" stroke-width="0.5"/>
<path d="M196.549 41.0586V200.617" stroke="#A8ADB7" stroke-width="0.5"/>
<path d="M184.01 204.141C184.01 204.141 184.01 206.236 181.054 208.331H188.444C185.488 206.236 185.488 204.141 185.488 204.141H184.01Z" fill="url(#paint22_linear_315_17154)"/>
<path d="M214.8 204C214.8 204 214.8 206.5 212 209H219C216.2 206.5 216.2 204 216.2 204H214.8Z" fill="url(#paint23_linear_315_17154)"/>
<circle cx="217.5" cy="60.5" r="7.5" fill="#007AFF"/>
<circle cx="214.5" cy="88.5" r="7.5" fill="#ED1B24"/>
<defs>
<linearGradient id="paint0_linear_315_17154" x1="185.488" y1="204.141" x2="195.341" y2="204.141" gradientUnits="userSpaceOnUse">
<stop stop-color="#2A3535"/>
<stop offset="0.209015" stop-color="#445656"/>
<stop offset="0.455" stop-color="#728D8D"/>
<stop offset="0.787611" stop-color="#576E6E"/>
<stop offset="1" stop-color="#6C8888"/>
</linearGradient>
<linearGradient id="paint1_linear_315_17154" x1="190.415" y1="201.676" x2="190.415" y2="204.141" gradientUnits="userSpaceOnUse">
<stop/>
<stop offset="1" stop-opacity="0"/>
</linearGradient>
<linearGradient id="paint2_linear_315_17154" x1="206.427" y1="204.141" x2="215.049" y2="204.141" gradientUnits="userSpaceOnUse">
<stop stop-color="#5A6969"/>
<stop offset="0.262951" stop-color="#4B5858"/>
<stop offset="0.767908" stop-color="#3C4949"/>
<stop offset="1" stop-color="#2A3535"/>
</linearGradient>
<linearGradient id="paint3_linear_315_17154" x1="216.281" y1="204.14" x2="229.829" y2="204.14" gradientUnits="userSpaceOnUse">
<stop stop-color="#252F2F"/>
<stop offset="0.36964" stop-color="#4C6060"/>
<stop offset="0.729231" stop-color="#5C7474"/>
<stop offset="1" stop-color="#6F8C8C"/>
</linearGradient>
<linearGradient id="paint4_linear_315_17154" x1="184.872" y1="204.141" x2="184.872" y2="210.303" gradientUnits="userSpaceOnUse">
<stop stop-color="#C6FAFA"/>
<stop offset="0.085" stop-color="#ADD7D7"/>
<stop offset="0.358361" stop-color="#9CBEBE"/>
<stop offset="0.846994" stop-color="#7A8D8D"/>
<stop offset="0.87849" stop-color="#4F5656"/>
</linearGradient>
<linearGradient id="paint5_linear_315_17154" x1="173.171" y1="207.838" x2="196.573" y2="207.838" gradientUnits="userSpaceOnUse">
<stop/>
<stop offset="0.0872177" stop-opacity="0.5811"/>
<stop offset="0.237819" stop-opacity="0.433965"/>
<stop offset="0.778212" stop-opacity="0.29"/>
<stop offset="1"/>
</linearGradient>
<linearGradient id="paint6_linear_315_17154" x1="218.128" y1="204.141" x2="218.128" y2="210.303" gradientUnits="userSpaceOnUse">
<stop offset="0.01" stop-color="#C6FBFB"/>
<stop offset="0.47" stop-color="#AED9D9"/>
<stop offset="0.732734" stop-color="#93B2B2"/>
<stop offset="1" stop-color="#5A6161"/>
</linearGradient>
<linearGradient id="paint7_linear_315_17154" x1="174.402" y1="204.14" x2="184.256" y2="204.14" gradientUnits="userSpaceOnUse">
<stop stop-color="#2C3737"/>
<stop offset="0.166301" stop-color="#3F5050"/>
<stop offset="0.47" stop-color="#859A9A"/>
<stop offset="0.834318" stop-color="#4F6464"/>
<stop offset="1" stop-color="#6A8686"/>
</linearGradient>
<linearGradient id="paint8_linear_315_17154" x1="179.329" y1="200.443" x2="179.329" y2="202.908" gradientUnits="userSpaceOnUse">
<stop/>
<stop offset="1" stop-opacity="0"/>
</linearGradient>
<linearGradient id="paint9_linear_315_17154" x1="152.98" y1="117.235" x2="250.02" y2="117.235" gradientUnits="userSpaceOnUse">
<stop stop-color="#A9AFC8"/>
<stop offset="0.255" stop-color="#E9F0FF"/>
<stop offset="0.82" stop-color="#DFE6F7"/>
<stop offset="1" stop-color="#ADB3CC"/>
</linearGradient>
<linearGradient id="paint10_linear_315_17154" x1="184.749" y1="204.141" x2="184.749" y2="209.07" gradientUnits="userSpaceOnUse">
<stop stop-color="#99C0C0"/>
<stop offset="1" stop-color="#6B7E7E"/>
</linearGradient>
<linearGradient id="paint11_linear_315_17154" x1="185.488" y1="204.141" x2="195.341" y2="204.141" gradientUnits="userSpaceOnUse">
<stop stop-color="#2A3535"/>
<stop offset="0.209015" stop-color="#445656"/>
<stop offset="0.455" stop-color="#728D8D"/>
<stop offset="0.787611" stop-color="#576E6E"/>
<stop offset="1" stop-color="#6C8888"/>
</linearGradient>
<linearGradient id="paint12_linear_315_17154" x1="190.415" y1="201.676" x2="190.415" y2="204.141" gradientUnits="userSpaceOnUse">
<stop/>
<stop offset="1" stop-opacity="0"/>
</linearGradient>
<linearGradient id="paint13_linear_315_17154" x1="206.427" y1="204.141" x2="215.049" y2="204.141" gradientUnits="userSpaceOnUse">
<stop stop-color="#5A6969"/>
<stop offset="0.262951" stop-color="#4B5858"/>
<stop offset="0.767908" stop-color="#3C4949"/>
<stop offset="1" stop-color="#2A3535"/>
</linearGradient>
<linearGradient id="paint14_linear_315_17154" x1="216.281" y1="204.14" x2="229.829" y2="204.14" gradientUnits="userSpaceOnUse">
<stop stop-color="#252F2F"/>
<stop offset="0.36964" stop-color="#4C6060"/>
<stop offset="0.729231" stop-color="#5C7474"/>
<stop offset="1" stop-color="#6F8C8C"/>
</linearGradient>
<linearGradient id="paint15_linear_315_17154" x1="184.872" y1="204.141" x2="184.872" y2="210.303" gradientUnits="userSpaceOnUse">
<stop stop-color="#C6FAFA"/>
<stop offset="0.085" stop-color="#ADD7D7"/>
<stop offset="0.358361" stop-color="#9CBEBE"/>
<stop offset="0.846994" stop-color="#7A8D8D"/>
<stop offset="0.87849" stop-color="#4F5656"/>
</linearGradient>
<linearGradient id="paint16_linear_315_17154" x1="173.171" y1="207.838" x2="196.573" y2="207.838" gradientUnits="userSpaceOnUse">
<stop/>
<stop offset="0.0872177" stop-opacity="0.5811"/>
<stop offset="0.237819" stop-opacity="0.433965"/>
<stop offset="0.778212" stop-opacity="0.29"/>
<stop offset="1"/>
</linearGradient>
<linearGradient id="paint17_linear_315_17154" x1="174" y1="204" x2="184" y2="204" gradientUnits="userSpaceOnUse">
<stop stop-color="#2C3737"/>
<stop offset="0.166301" stop-color="#3F5050"/>
<stop offset="0.47" stop-color="#859A9A"/>
<stop offset="0.834318" stop-color="#4F6464"/>
<stop offset="1" stop-color="#6A8686"/>
</linearGradient>
<linearGradient id="paint18_linear_315_17154" x1="179" y1="199.5" x2="179" y2="202.5" gradientUnits="userSpaceOnUse">
<stop/>
<stop offset="1" stop-opacity="0"/>
</linearGradient>
<linearGradient id="paint19_linear_315_17154" x1="218" y1="204" x2="218" y2="210" gradientUnits="userSpaceOnUse">
<stop stop-color="#C6FAFA"/>
<stop offset="0.085" stop-color="#ADD7D7"/>
<stop offset="0.358361" stop-color="#9CBEBE"/>
<stop offset="0.846994" stop-color="#7A8D8D"/>
<stop offset="0.87849" stop-color="#4F5656"/>
</linearGradient>
<linearGradient id="paint20_linear_315_17154" x1="206" y1="207.6" x2="230" y2="207.6" gradientUnits="userSpaceOnUse">
<stop/>
<stop offset="0.0872177" stop-opacity="0.5811"/>
<stop offset="0.237819" stop-opacity="0.433965"/>
<stop offset="0.778212" stop-opacity="0.29"/>
<stop offset="1"/>
</linearGradient>
<linearGradient id="paint21_linear_315_17154" x1="152.98" y1="117.235" x2="250.02" y2="117.235" gradientUnits="userSpaceOnUse">
<stop stop-color="#A9AFC8"/>
<stop offset="0.255" stop-color="#E9F0FF"/>
<stop offset="0.82" stop-color="#DFE6F7"/>
<stop offset="1" stop-color="#ADB3CC"/>
</linearGradient>
<linearGradient id="paint22_linear_315_17154" x1="184.749" y1="204.141" x2="184.749" y2="209.07" gradientUnits="userSpaceOnUse">
<stop stop-color="#99C0C0"/>
<stop offset="1" stop-color="#6B7E7E"/>
</linearGradient>
<linearGradient id="paint23_linear_315_17154" x1="215.5" y1="204" x2="215.5" y2="209.882" gradientUnits="userSpaceOnUse">
<stop stop-color="#99C0C0"/>
<stop offset="1" stop-color="#6B7E7E"/>
</linearGradient>
</defs>
</svg>
