<svg width="51" height="36" viewBox="0 0 51 36" fill="none" xmlns="http://www.w3.org/2000/svg">
<path fill-rule="evenodd" clip-rule="evenodd" d="M19.603 0.798828C19.3693 0.798951 19.1406 0.866116 18.9437 0.992399C18.7469 1.11868 18.5901 1.29881 18.492 1.51154L10.1628 19.5383C8.23575 18.9821 6.17044 19.1759 4.37961 20.081C2.58878 20.9861 1.20432 22.5358 0.502903 24.4204C-0.198513 26.305 -0.165234 28.3857 0.596096 30.2468C1.35742 32.1078 2.79073 33.6122 4.60959 34.4591C6.42844 35.3061 8.49889 35.4333 10.4072 34.8154C12.3155 34.1975 13.9211 32.8799 14.9032 31.126C15.8852 29.3721 16.1714 27.311 15.7045 25.3546C15.2377 23.3982 14.0521 21.6905 12.3848 20.5729L20.3869 3.25646H25.7273V0.798828H19.603ZM10.8059 23.9952C11.5775 24.6793 12.0779 25.6193 12.2155 26.6431C12.3531 27.667 12.1187 28.7063 11.5553 29.571C10.9918 30.4358 10.1369 31.0682 9.14693 31.3525C8.15692 31.6369 7.09795 31.5543 6.16368 31.1197C5.22941 30.6852 4.48227 29.9278 4.05889 28.986C3.63551 28.0443 3.56417 26.9811 3.85794 25.9909C4.1517 25.0008 4.79093 24.1497 5.65873 23.5935C6.52652 23.0373 7.5649 22.813 8.58397 22.9618L6.85567 26.701C6.72781 26.9953 6.7198 27.3281 6.83336 27.6282C6.94691 27.9283 7.17302 28.1719 7.46331 28.3069C7.7536 28.4419 8.08502 28.4576 8.3867 28.3506C8.68838 28.2437 8.93636 28.0225 9.0776 27.7345L10.8059 23.9952ZM33.1697 28.4472C33.4828 30.4313 34.5294 32.2242 36.101 33.4689C37.6726 34.7136 39.6539 35.3188 41.6503 35.1638C43.6466 35.0089 45.5116 34.1052 46.8736 32.6327C48.2357 31.1603 48.9949 29.2271 49 27.2184C49.0028 25.2048 48.2473 23.2644 46.8849 21.7857C45.5225 20.3071 43.6537 19.3992 41.6525 19.2439C39.6513 19.0885 37.6655 19.6972 36.0926 20.948C34.5197 22.1988 33.4757 23.9995 33.1697 25.9896H29.402V24.1463C29.402 23.4945 29.1439 22.8694 28.6845 22.4085C28.225 21.9476 27.6019 21.6887 26.9522 21.6887H19.603V26.604C19.603 27.2558 19.8611 27.8809 20.3205 28.3418C20.7799 28.8027 21.403 29.0616 22.0527 29.0616H26.9522C27.5818 29.0616 28.1563 28.8232 28.5911 28.4312C28.6567 28.4419 28.7231 28.4472 28.7895 28.4472H33.1697ZM41.0383 31.5192C41.8333 31.519 42.6126 31.297 43.2891 30.8781C43.9657 30.4591 44.5127 29.8597 44.8692 29.1468C45.2256 28.4338 45.3775 27.6355 45.3077 26.841C45.238 26.0465 44.9494 25.2871 44.4742 24.6477C43.999 24.0082 43.3559 23.514 42.6168 23.2201C41.8777 22.9262 41.0717 22.8443 40.2889 22.9835C39.5061 23.1228 38.7772 23.4776 38.1839 24.0085C37.5905 24.5393 37.156 25.2252 36.9288 25.9896H41.0383C41.3632 25.9896 41.6747 26.119 41.9044 26.3495C42.1341 26.5799 42.2632 26.8925 42.2632 27.2184C42.2632 27.5443 42.1341 27.8568 41.9044 28.0873C41.6747 28.3177 41.3632 28.4472 41.0383 28.4472H36.9288C37.193 29.3348 37.7356 30.1131 38.476 30.6666C39.2164 31.22 40.115 31.5191 41.0383 31.5192Z" fill="white"/>
<path d="M20.0612 17.6728L18.7749 15.2728C18.5965 14.9397 18.5036 14.5724 18.5036 14.2C18.5036 13.8276 18.5965 13.4603 18.7749 13.1272L20.0612 10.7272C20.2749 10.3282 20.6035 9.99273 21.0102 9.75829C21.4169 9.52386 21.8856 9.39979 22.3636 9.4H26.5826C27.7038 9.40013 28.8173 9.57118 29.8793 9.9064L33.9247 11.182C34.1149 11.242 34.2874 11.3426 34.4284 11.4759C34.5694 11.6092 34.675 11.7715 34.7368 11.9497C34.7985 12.1279 34.8147 12.3171 34.784 12.5022C34.7534 12.6873 34.6767 12.8631 34.5601 13.0156L30.3758 18.496C30.2568 18.6519 30.0996 18.779 29.9172 18.8667C29.7349 18.9544 29.5327 19.0001 29.3275 19H22.3623C21.8845 19 21.4161 18.8758 21.0097 18.6414C20.6032 18.407 20.2748 18.0716 20.0612 17.6728ZM38.2864 12.2596C38.4069 12.1162 38.5608 12.0004 38.7364 11.9207C38.912 11.8411 39.1048 11.7998 39.3 11.8H49.7137C50.0549 11.8 50.382 11.9264 50.6233 12.1515C50.8645 12.3765 51 12.6817 51 13V14.926C51 15.2214 50.8832 15.5065 50.672 15.7266C50.4608 15.9466 50.17 16.0863 49.8552 16.1188L35.1569 17.6428C35.0308 17.6563 34.9032 17.6347 34.7901 17.5807C34.6771 17.5267 34.5838 17.4427 34.5219 17.3392C34.46 17.2358 34.4323 17.1176 34.4423 16.9995C34.4523 16.8814 34.4996 16.7687 34.5781 16.6756L38.2864 12.2596ZM7.71679 7.2556C7.77617 7.17656 7.85513 7.11206 7.94693 7.06756C8.03874 7.02307 8.1407 6.99989 8.24416 7H13.3005C13.4102 7 13.518 7.02617 13.6138 7.07602C13.7096 7.12587 13.7901 7.19773 13.8477 7.28479C13.9053 7.37186 13.9381 7.47122 13.943 7.57343C13.9479 7.67565 13.9246 7.77733 13.8755 7.8688L11.3029 12.6688C11.2495 12.7683 11.1674 12.852 11.0658 12.9105C10.9643 12.969 10.8473 13 10.728 13H4.64387C4.52613 13.0001 4.4106 12.9701 4.30989 12.9132C4.20919 12.8563 4.12716 12.7746 4.07276 12.6772C4.01836 12.5798 3.99367 12.4703 4.00138 12.3607C4.00909 12.2511 4.04891 12.1456 4.1165 12.0556L7.71679 7.2556Z" fill="white"/>
</svg>
