<svg width="64" height="27" viewBox="0 0 64 27" fill="none" xmlns="http://www.w3.org/2000/svg">
<path d="M4.4668 24.041C3.14974 24.041 2.11491 23.6592 1.3623 22.8955C0.609701 22.1208 0.233398 21.0583 0.233398 19.708V15.6904C0.233398 13.7425 0.819987 12.2152 1.99316 11.1084C3.17741 10.0016 5.02572 9.25456 7.53809 8.86719L13.7305 7.9209L20.5205 3.6709C21.4502 3.08431 22.3633 2.5918 23.2598 2.19336C24.1562 1.79492 25.0859 1.47396 26.0488 1.23047C27.0228 0.975911 28.0632 0.793294 29.1699 0.682617C30.2767 0.57194 31.4997 0.516602 32.8389 0.516602H39.5459C41.1839 0.516602 42.4622 0.931641 43.3809 1.76172C44.2995 2.58073 44.8529 3.81478 45.041 5.46387L45.4395 8.85059H59.2686C60.4971 8.85059 61.4544 9.14941 62.1406 9.74707C62.8379 10.3447 63.1865 11.1748 63.1865 12.2373V19.708C63.1865 21.0583 62.8102 22.1208 62.0576 22.8955C61.3161 23.6592 60.2868 24.041 58.9697 24.041H53.9395C54.0059 23.7865 54.0557 23.5319 54.0889 23.2773C54.1221 23.0117 54.1387 22.7461 54.1387 22.4805C54.1387 21.2962 53.8509 20.2227 53.2754 19.2598C52.7109 18.2969 51.9417 17.5332 50.9678 16.9688C50.0049 16.3932 48.9368 16.1055 47.7637 16.1055C46.5905 16.1055 45.5225 16.3932 44.5596 16.9688C43.5967 17.5332 42.8275 18.3024 42.252 19.2764C41.6764 20.2393 41.3887 21.3073 41.3887 22.4805C41.3887 22.7461 41.4053 23.0117 41.4385 23.2773C41.4717 23.5319 41.5215 23.7865 41.5879 24.041H18.9102C18.9655 23.7975 19.0098 23.543 19.043 23.2773C19.0762 23.0117 19.0928 22.7461 19.0928 22.4805C19.0928 21.2962 18.805 20.2227 18.2295 19.2598C17.665 18.2969 16.9014 17.5332 15.9385 16.9688C14.9756 16.3932 13.902 16.1055 12.7178 16.1055C11.5446 16.1055 10.471 16.3932 9.49707 16.9688C8.53418 17.5332 7.76497 18.2969 7.18945 19.2598C6.625 20.2227 6.34277 21.2962 6.34277 22.4805C6.34277 22.7461 6.35938 23.0117 6.39258 23.2773C6.43685 23.5319 6.48665 23.7865 6.54199 24.041H4.4668ZM12.7178 26.9131C11.8988 26.9131 11.1517 26.7139 10.4766 26.3154C9.80143 25.917 9.26465 25.3857 8.86621 24.7217C8.47884 24.0465 8.28516 23.2995 8.28516 22.4805C8.28516 21.6504 8.47884 20.9033 8.86621 20.2393C9.26465 19.5641 9.80143 19.0273 10.4766 18.6289C11.1517 18.2305 11.8988 18.0312 12.7178 18.0312C13.5368 18.0312 14.2839 18.2305 14.959 18.6289C15.6341 19.0273 16.1709 19.5641 16.5693 20.2393C16.9678 20.9033 17.167 21.6504 17.167 22.4805C17.167 23.3105 16.9678 24.0632 16.5693 24.7383C16.1709 25.4023 15.6341 25.9281 14.959 26.3154C14.2949 26.7139 13.5479 26.9131 12.7178 26.9131ZM47.7637 26.9131C46.9447 26.9131 46.1976 26.7139 45.5225 26.3154C44.8473 25.917 44.3105 25.3857 43.9121 24.7217C43.5137 24.0465 43.3145 23.2995 43.3145 22.4805C43.3145 21.6615 43.5137 20.9144 43.9121 20.2393C44.3216 19.5641 44.8584 19.0273 45.5225 18.6289C46.1976 18.2305 46.9447 18.0312 47.7637 18.0312C48.5827 18.0312 49.3298 18.2305 50.0049 18.6289C50.68 19.0273 51.2168 19.5641 51.6152 20.2393C52.0137 20.9033 52.2129 21.6504 52.2129 22.4805C52.2129 23.2995 52.0137 24.0465 51.6152 24.7217C51.2168 25.3857 50.68 25.917 50.0049 26.3154C49.3298 26.7139 48.5827 26.9131 47.7637 26.9131Z" fill="white"/>
</svg>
