<svg width="60" height="27" viewBox="0 0 60 27" fill="none" xmlns="http://www.w3.org/2000/svg">
<path d="M4.56641 24.041C3.19401 24.041 2.12598 23.6536 1.3623 22.8789C0.609701 22.1042 0.233398 21.014 0.233398 19.6084V16.3213C0.233398 14.3512 0.875326 12.7354 2.15918 11.4736C3.44303 10.2119 5.23047 9.44271 7.52148 9.16602L14.8926 8.26953L21.583 4.06934C22.6012 3.42741 23.5697 2.90169 24.4883 2.49219C25.4069 2.07161 26.3643 1.74512 27.3604 1.5127C28.3675 1.26921 29.502 1.09766 30.7637 0.998047C32.0365 0.898438 33.5251 0.848633 35.2295 0.848633H39.1309C40.8464 0.848633 42.3737 1.05339 43.7129 1.46289C45.0632 1.86133 46.2529 2.37598 47.2822 3.00684C48.3115 3.6377 49.2025 4.31836 49.9551 5.04883C50.7188 5.76823 51.3717 6.44889 51.9141 7.09082L55.334 8.13672C56.3633 8.45768 57.1491 8.88379 57.6914 9.41504C58.2337 9.93522 58.6045 10.5384 58.8037 11.2246C59.014 11.8997 59.1191 12.6247 59.1191 13.3994V20.0732C59.1191 21.3018 58.776 22.2702 58.0898 22.9785C57.4036 23.6868 56.4629 24.041 55.2676 24.041H53.0762C53.1315 23.7975 53.1758 23.543 53.209 23.2773C53.2422 23.0117 53.2588 22.7461 53.2588 22.4805C53.2588 21.2852 52.9766 20.2061 52.4121 19.2432C51.8477 18.2803 51.084 17.5166 50.1211 16.9521C49.1582 16.3877 48.0791 16.1055 46.8838 16.1055C45.6995 16.1055 44.626 16.3877 43.6631 16.9521C42.7002 17.5166 41.931 18.2803 41.3555 19.2432C40.791 20.2061 40.5088 21.2852 40.5088 22.4805C40.5088 22.7461 40.5254 23.0117 40.5586 23.2773C40.5918 23.543 40.6361 23.7975 40.6914 24.041H19.541C19.5964 23.7975 19.6406 23.543 19.6738 23.2773C19.707 23.0117 19.7236 22.7461 19.7236 22.4805C19.7236 21.2852 19.4414 20.2061 18.877 19.2432C18.3125 18.2803 17.5488 17.5166 16.5859 16.9521C15.623 16.3877 14.5439 16.1055 13.3486 16.1055C12.1644 16.1055 11.0908 16.3877 10.1279 16.9521C9.16504 17.5166 8.39583 18.2803 7.82031 19.2432C7.25586 20.2061 6.97363 21.2852 6.97363 22.4805C6.97363 22.7461 6.99023 23.0117 7.02344 23.2773C7.05664 23.543 7.10091 23.7975 7.15625 24.041H4.56641ZM13.3486 26.9131C12.5296 26.9131 11.7826 26.7139 11.1074 26.3154C10.4323 25.917 9.89551 25.3857 9.49707 24.7217C9.1097 24.0465 8.91602 23.2995 8.91602 22.4805C8.91602 21.6504 9.1097 20.9033 9.49707 20.2393C9.89551 19.5641 10.4323 19.0273 11.1074 18.6289C11.7826 18.2305 12.5296 18.0312 13.3486 18.0312C14.1676 18.0312 14.9147 18.2305 15.5898 18.6289C16.265 19.0273 16.8018 19.5641 17.2002 20.2393C17.5986 20.9033 17.7979 21.6504 17.7979 22.4805C17.7979 23.3105 17.5986 24.0632 17.2002 24.7383C16.8018 25.4023 16.265 25.9281 15.5898 26.3154C14.9258 26.7139 14.1787 26.9131 13.3486 26.9131ZM46.8838 26.9131C46.0648 26.9131 45.3177 26.7139 44.6426 26.3154C43.9785 25.917 43.4473 25.3857 43.0488 24.7217C42.6504 24.0465 42.4512 23.2995 42.4512 22.4805C42.4512 21.6615 42.6504 20.9144 43.0488 20.2393C43.4473 19.5641 43.9785 19.0273 44.6426 18.6289C45.3177 18.2305 46.0648 18.0312 46.8838 18.0312C47.7139 18.0312 48.4609 18.2305 49.125 18.6289C49.8001 19.0273 50.3369 19.5641 50.7354 20.2393C51.1338 20.9033 51.333 21.6504 51.333 22.4805C51.333 23.2995 51.1338 24.0465 50.7354 24.7217C50.3369 25.3857 49.8001 25.917 49.125 26.3154C48.4609 26.7139 47.7139 26.9131 46.8838 26.9131Z" fill="white"/>
</svg>
