<svg width="60" height="27" viewBox="0 0 60 27" fill="none" xmlns="http://www.w3.org/2000/svg">
<path d="M13.4316 26.9131C12.6126 26.9131 11.8656 26.7139 11.1904 26.3154C10.5153 25.917 9.97852 25.3857 9.58008 24.7217C9.19271 24.0465 8.99902 23.2995 8.99902 22.4805C8.99902 21.6504 9.19271 20.9033 9.58008 20.2393C9.97852 19.5641 10.5153 19.0273 11.1904 18.6289C11.8656 18.2305 12.6126 18.0312 13.4316 18.0312C14.2507 18.0312 14.9977 18.2305 15.6729 18.6289C16.348 19.0273 16.8848 19.5641 17.2832 20.2393C17.6816 20.9033 17.8809 21.6504 17.8809 22.4805C17.8809 23.3105 17.6816 24.0632 17.2832 24.7383C16.8848 25.4023 16.348 25.9281 15.6729 26.3154C15.0088 26.7139 14.2617 26.9131 13.4316 26.9131ZM46.8838 26.9131C46.0648 26.9131 45.3177 26.7139 44.6426 26.3154C43.9785 25.917 43.4473 25.3857 43.0488 24.7217C42.6504 24.0465 42.4512 23.2995 42.4512 22.4805C42.4512 21.6615 42.6504 20.9144 43.0488 20.2393C43.4473 19.5641 43.9785 19.0273 44.6426 18.6289C45.3177 18.2305 46.0648 18.0312 46.8838 18.0312C47.7139 18.0312 48.4609 18.2305 49.125 18.6289C49.8001 19.0273 50.3369 19.5641 50.7354 20.2393C51.1338 20.9033 51.333 21.6504 51.333 22.4805C51.333 23.2995 51.1338 24.0465 50.7354 24.7217C50.3369 25.3857 49.8001 25.917 49.125 26.3154C48.4609 26.7139 47.7139 26.9131 46.8838 26.9131ZM57.0439 5.49707C57.6969 6.43783 58.2061 7.47266 58.5713 8.60156C58.9365 9.7194 59.1191 10.7985 59.1191 11.8389V18.9277C59.1191 20.5768 58.776 21.7887 58.0898 22.5635C57.4147 23.3271 56.3522 23.709 54.9023 23.709H53.1426C53.1868 23.5098 53.2145 23.3105 53.2256 23.1113C53.2477 22.901 53.2588 22.6908 53.2588 22.4805C53.2588 21.2962 52.971 20.2227 52.3955 19.2598C51.8311 18.2969 51.0674 17.5332 50.1045 16.9688C49.1416 16.3932 48.068 16.1055 46.8838 16.1055C45.7106 16.1055 44.6426 16.3932 43.6797 16.9688C42.7168 17.5332 41.9476 18.3024 41.3721 19.2764C40.7965 20.2393 40.5088 21.3073 40.5088 22.4805C40.5088 22.6908 40.5199 22.901 40.542 23.1113C40.5641 23.3105 40.5918 23.5098 40.625 23.709H19.6904C19.7347 23.5098 19.7624 23.3105 19.7734 23.1113C19.7956 22.901 19.8066 22.6908 19.8066 22.4805C19.8066 21.2962 19.5189 20.2227 18.9434 19.2598C18.3789 18.2969 17.6152 17.5332 16.6523 16.9688C15.6895 16.3932 14.6159 16.1055 13.4316 16.1055C12.2585 16.1055 11.1849 16.3932 10.2109 16.9688C9.24805 17.5332 8.47884 18.2969 7.90332 19.2598C7.33887 20.2227 7.05664 21.2962 7.05664 22.4805C7.05664 22.6908 7.06771 22.901 7.08984 23.1113C7.11198 23.3105 7.13965 23.5098 7.17285 23.709H4.4668C3.14974 23.709 2.11491 23.3271 1.3623 22.5635C0.609701 21.7887 0.233398 20.7262 0.233398 19.376V16.5205C0.233398 14.2516 0.936198 12.4697 2.3418 11.1748C3.7474 9.86882 5.86686 9.03874 8.7002 8.68457L14.8926 7.9209L21.583 3.7207C22.6012 3.08984 23.5697 2.56966 24.4883 2.16016C25.4069 1.73958 26.3643 1.41309 27.3604 1.18066C28.3675 0.937174 29.502 0.765625 30.7637 0.666016C32.0365 0.566406 33.5251 0.516602 35.2295 0.516602H48.1953C50.1211 0.516602 51.7148 0.820964 52.9766 1.42969C54.2383 2.02734 55.3451 3.0179 56.2969 4.40137L57.0439 5.49707Z" fill="white"/>
</svg>
