<svg width="49" height="36" viewBox="0 0 49 36" fill="none" xmlns="http://www.w3.org/2000/svg">
<path d="M31.3613 26.5801C30.8301 27.1445 30.4261 27.8031 30.1494 28.5557C29.8727 29.2972 29.7344 30.0941 29.7344 30.9463C29.7344 31.1787 29.751 31.4111 29.7842 31.6436H19.209C19.2422 31.4222 19.2588 31.1953 19.2588 30.9629C19.2588 30.0332 19.0817 29.1644 18.7275 28.3564C18.3844 27.5374 17.903 26.8236 17.2832 26.2148C16.6745 25.5951 15.9606 25.1136 15.1416 24.7705C14.3337 24.4163 13.4704 24.2393 12.5518 24.2393C11.6221 24.2393 10.7477 24.4163 9.92871 24.7705C9.12077 25.1136 8.4069 25.5951 7.78711 26.2148C7.17839 26.8236 6.69694 27.5374 6.34277 28.3564C5.99967 29.1644 5.82812 30.0332 5.82812 30.9629C5.82812 31.1953 5.84473 31.4222 5.87793 31.6436H4.74902C3.764 31.6436 2.93392 31.472 2.25879 31.1289C1.59473 30.7969 1.09115 30.2988 0.748047 29.6348C0.404948 28.9596 0.233398 28.1296 0.233398 27.1445V5.36328C0.233398 3.88021 0.615234 2.75684 1.37891 1.99316C2.14258 1.22949 3.26595 0.847656 4.74902 0.847656H26.8457C28.3288 0.847656 29.4521 1.23503 30.2158 2.00977C30.9795 2.77344 31.3613 3.89128 31.3613 5.36328V26.5801ZM33.6357 10.0117H38.0518C38.8708 10.0117 39.568 10.1224 40.1436 10.3438C40.7191 10.5651 41.2559 10.9469 41.7539 11.4893L47.3984 17.8643C47.8633 18.3844 48.1732 18.8825 48.3281 19.3584C48.4941 19.8232 48.5771 20.4652 48.5771 21.2842V27.1445C48.5771 28.6055 48.2008 29.7178 47.4482 30.4814C46.6956 31.2562 45.5889 31.6436 44.1279 31.6436H43.1152C43.1484 31.4111 43.165 31.1787 43.165 30.9463C43.165 30.0166 42.9824 29.1478 42.6172 28.3398C42.263 27.5208 41.7705 26.807 41.1396 26.1982C40.5199 25.5785 39.8005 25.097 38.9814 24.7539C38.1735 24.3997 37.3047 24.2227 36.375 24.2227C35.877 24.2227 35.3955 24.2891 34.9307 24.4219C34.4658 24.5436 34.0342 24.7152 33.6357 24.9365V10.0117ZM37.9355 20.6035H45.373C45.3398 20.4154 45.279 20.2383 45.1904 20.0723C45.1019 19.9062 44.9912 19.7513 44.8584 19.6074L39.7949 13.9297C39.474 13.5645 39.1696 13.332 38.8818 13.2324C38.5941 13.1328 38.262 13.083 37.8857 13.083H36.4248V19.0928C36.4248 19.5576 36.5576 19.9284 36.8232 20.2051C37.0999 20.4707 37.4707 20.6035 37.9355 20.6035ZM12.5518 35.7441C11.6663 35.7441 10.8584 35.5283 10.1279 35.0967C9.40853 34.665 8.83301 34.084 8.40137 33.3535C7.98079 32.6341 7.77051 31.8372 7.77051 30.9629C7.77051 30.0775 7.98079 29.2751 8.40137 28.5557C8.83301 27.8252 9.40853 27.2497 10.1279 26.8291C10.8584 26.3975 11.6663 26.1816 12.5518 26.1816C13.4261 26.1816 14.223 26.3975 14.9424 26.8291C15.6729 27.2497 16.2539 27.8252 16.6855 28.5557C17.1172 29.2751 17.333 30.0775 17.333 30.9629C17.333 31.8372 17.1172 32.6341 16.6855 33.3535C16.2539 34.084 15.6784 34.665 14.959 35.0967C14.2396 35.5283 13.4372 35.7441 12.5518 35.7441ZM36.4414 35.7441C35.5671 35.7441 34.7646 35.5283 34.0342 35.0967C33.3148 34.665 32.7393 34.084 32.3076 33.3535C31.876 32.623 31.6602 31.8206 31.6602 30.9463C31.6602 30.0609 31.876 29.2585 32.3076 28.5391C32.7393 27.8086 33.3148 27.2331 34.0342 26.8125C34.7646 26.3809 35.5671 26.165 36.4414 26.165C37.3268 26.165 38.1292 26.3809 38.8486 26.8125C39.568 27.2331 40.1436 27.8086 40.5752 28.5391C41.0068 29.2585 41.2227 30.0609 41.2227 30.9463C41.2227 31.8317 41.0068 32.6341 40.5752 33.3535C40.1546 34.084 39.5791 34.665 38.8486 35.0967C38.1292 35.5283 37.3268 35.7441 36.4414 35.7441Z" fill="white"/>
</svg>
